<svg version="1.1" id="Layer_1" xmlns="http://www.w3.org/2000/svg" xmlns:xlink="http://www.w3.org/1999/xlink" x="0px" y="0px"
	 width="100%" viewBox="0 0 500 500" enable-background="new 0 0 500 500" xml:space="preserve">
<path fill="#FEFEFF" opacity="1.000000" stroke="none" 
	d="
M501.000000,168.000000 
	C501.000000,279.333313 501.000000,390.166595 501.000000,500.999939 
	C334.333405,500.999939 167.666794,500.999939 1.000149,500.999969 
	C1.000099,334.333435 1.000099,167.666885 1.000050,1.000238 
	C167.666519,1.000159 334.333038,1.000159 500.999786,1.000079 
	C501.000000,56.500000 501.000000,112.000000 501.000000,168.000000 
M16.800266,264.950562 
	C23.365620,349.430481 63.688419,412.976044 136.396317,455.782837 
	C167.549637,474.124298 201.699478,483.667419 238.715164,485.411255 
	C242.486633,485.473236 246.258102,485.535217 250.669662,485.759705 
	C251.103149,485.705536 251.536621,485.651367 252.861359,485.806335 
	C256.589905,485.581085 260.318420,485.355865 264.963806,485.240784 
	C271.919159,484.544617 278.910980,484.103394 285.824402,483.114166 
	C391.866272,467.940460 476.617554,379.654205 484.469940,272.735657 
	C491.809662,172.798080 450.414032,96.680481 364.348602,45.579361 
	C333.701233,27.382570 299.794434,18.335182 263.263794,16.626654 
	C254.831741,16.720896 246.399689,16.815140 237.049179,16.800940 
	C152.387833,23.434010 88.762474,63.883957 45.999866,136.853851 
	C27.808210,167.895996 18.384869,201.899521 16.635612,238.739120 
	C16.726957,247.170135 16.818300,255.601151 16.800266,264.950562 
z"/>
<path fill="#294E79" opacity="1.000000" stroke="none" 
	d="
M16.910339,237.971344 
	C18.384869,201.899521 27.808210,167.895996 45.999866,136.853851 
	C88.762474,63.883957 152.387833,23.434010 237.802032,17.156448 
	C244.005142,17.663015 249.456848,17.961802 254.905029,17.907190 
	C257.949677,17.876669 260.988403,17.259512 264.029816,16.906698 
	C299.794434,18.335182 333.701233,27.382570 364.348602,45.579361 
	C450.414032,96.680481 491.809662,172.798080 484.469940,272.735657 
	C476.617554,379.654205 391.866272,467.940460 285.824402,483.114166 
	C278.910980,484.103394 271.919159,484.544617 264.222046,484.881744 
	C259.643524,484.880859 255.806824,485.239014 251.970108,485.597168 
	C251.536621,485.651367 251.103149,485.705536 250.207977,485.326843 
	C245.817032,484.971832 241.887802,485.049713 237.958557,485.127594 
	C201.699478,483.667419 167.549637,474.124298 136.396317,455.782837 
	C63.688419,412.976044 23.365620,349.430481 17.156319,264.197815 
	C17.663155,257.995483 17.961172,252.544403 17.906975,247.096832 
	C17.876682,244.051987 17.261801,241.012985 16.910339,237.971344 
M468.937408,189.642990 
	C435.255798,76.805244 328.603455,9.299858 213.362534,27.877380 
	C87.756477,48.125828 2.609018,172.792984 29.408123,297.210999 
	C55.251297,417.191010 167.892136,493.944305 289.022278,474.111694 
	C420.337646,452.611481 505.614868,318.283081 468.937408,189.642990 
z"/>
<path fill="#3A5B83" opacity="1.000000" stroke="none" 
	d="
M16.772976,238.355225 
	C17.261801,241.012985 17.876682,244.051987 17.906975,247.096832 
	C17.961172,252.544403 17.663155,257.995483 17.211008,263.738647 
	C16.818300,255.601151 16.726957,247.170135 16.772976,238.355225 
z"/>
<path fill="#3A5B83" opacity="1.000000" stroke="none" 
	d="
M263.646790,16.766676 
	C260.988403,17.259512 257.949677,17.876669 254.905029,17.907190 
	C249.456848,17.961802 244.005142,17.663015 238.261261,17.210670 
	C246.399689,16.815140 254.831741,16.720896 263.646790,16.766676 
z"/>
<path fill="#3A5B83" opacity="1.000000" stroke="none" 
	d="
M238.336853,485.269409 
	C241.887802,485.049713 245.817032,484.971832 249.887924,485.245575 
	C246.258102,485.535217 242.486633,485.473236 238.336853,485.269409 
z"/>
<path fill="#3A5B83" opacity="1.000000" stroke="none" 
	d="
M252.415741,485.701752 
	C255.806824,485.239014 259.643524,484.880859 263.763611,484.826660 
	C260.318420,485.355865 256.589905,485.581085 252.415741,485.701752 
z"/>
<path fill="#FBFCFD" opacity="1.000000" stroke="none" 
	d="
M469.023407,190.041016 
	C505.614868,318.283081 420.337646,452.611481 289.022278,474.111694 
	C167.892136,493.944305 55.251297,417.191010 29.408123,297.210999 
	C2.609018,172.792984 87.756477,48.125828 213.362534,27.877380 
	C328.603455,9.299858 435.255798,76.805244 469.023407,190.041016 
M329.668884,83.883827 
	C333.106537,80.292068 328.102631,80.665146 327.226410,79.635246 
	C325.822845,77.985573 323.968781,78.913223 323.626465,82.021065 
	C323.400604,82.346123 323.174744,82.671181 322.204346,83.018135 
	C321.162445,83.542366 319.329926,83.923538 319.205048,84.613731 
	C318.295624,89.639099 322.629578,90.777313 325.636719,92.785973 
	C327.302643,91.695068 328.929138,90.629982 330.539124,89.575706 
	C329.696747,88.427399 328.853760,87.278267 328.279877,85.609627 
	C328.511597,85.079994 328.743317,84.550369 329.668884,83.883827 
M416.530151,359.781799 
	C416.351257,359.833862 416.172363,359.885956 415.079468,359.714142 
	C306.713440,359.701263 198.347427,359.687714 89.981407,359.686493 
	C88.991882,359.686462 88.002365,359.851593 86.328728,359.756989 
	C85.862686,359.808655 85.396652,359.860291 84.076401,359.731018 
	C82.046188,359.826996 80.015976,359.922943 77.073730,359.792511 
	C71.382141,359.792511 65.690552,359.792511 59.637825,359.792511 
	C90.825882,417.420654 164.889359,478.554718 268.472015,470.778137 
	C313.554352,467.393585 353.814117,451.139404 389.121704,422.882202 
	C410.872620,405.474609 428.642212,384.649597 442.684845,360.022766 
	C435.919678,360.022766 429.967468,360.022766 423.169312,359.796417 
	C421.138092,359.832275 419.106873,359.868134 416.530151,359.781799 
M46.864067,263.116089 
	C48.453003,263.042480 50.041943,262.968903 51.938812,262.881073 
	C49.348217,207.370270 65.482147,158.542297 102.408653,117.377899 
	C139.295349,76.257866 185.746597,53.903938 240.971115,51.110649 
	C291.954285,48.531891 337.892914,63.180893 377.182922,95.916069 
	C429.126343,139.193695 452.790466,195.420273 450.238281,262.954895 
	C452.418060,262.954895 454.220459,262.954895 456.940063,263.139526 
	C461.550873,263.139526 466.161652,263.139526 470.716248,263.139526 
	C476.006744,197.391174 446.313049,111.503136 364.657104,62.054615 
	C288.593109,15.992407 190.573242,20.354124 119.725807,74.076912 
	C57.431839,121.313705 28.844917,185.000610 30.582661,262.960754 
	C36.362774,262.960754 41.171230,262.960754 46.864067,263.116089 
M31.476349,271.038208 
	C33.858803,298.545929 41.397617,324.580170 53.514923,349.370911 
	C55.289833,353.002197 57.286724,354.288666 61.387802,354.284668 
	C187.775742,354.162048 314.163788,354.184448 440.551849,354.184448 
	C441.384430,354.184448 442.335541,354.444672 443.025177,354.130676 
	C444.508759,353.455353 446.526611,352.826996 447.163208,351.583984 
	C460.116333,326.291229 468.377930,299.618652 470.613892,270.601288 
	C470.072845,270.039642 469.531830,269.477966 468.074493,268.705475 
	C324.047455,268.692627 180.020401,268.679321 35.993355,268.677277 
	C35.002464,268.677246 34.011574,268.832397 32.209728,268.876801 
	C32.006218,269.296570 31.802708,269.716309 31.476349,271.038208 
M230.050247,236.549454 
	C235.699738,229.332458 241.349228,222.115448 246.633041,215.365570 
	C250.577713,230.767349 261.186890,242.899384 272.384979,254.915115 
	C281.005646,247.430313 290.015747,243.226257 299.725616,246.552475 
	C302.714661,241.578934 304.708038,236.677353 308.089050,233.079941 
	C311.501404,229.449173 316.290222,227.112045 320.631470,224.100266 
	C315.085052,209.079453 308.717072,194.467529 295.924683,183.021866 
	C311.315216,183.511993 332.161346,177.810226 342.928406,170.369095 
	C339.036957,160.491852 337.333679,150.612259 343.807037,142.227402 
	C340.104553,138.063721 336.010559,134.707565 333.606232,130.406799 
	C331.177094,126.061707 330.422577,120.780449 328.831177,115.571243 
	C313.251007,115.831413 297.795258,117.852837 282.510345,125.761040 
	C288.290710,109.197258 287.404724,93.628914 285.063385,77.744514 
	C273.962158,78.240471 263.953094,76.913834 257.329437,66.850319 
	C249.189392,75.938019 239.045746,75.685913 228.289139,73.472275 
	C223.724167,88.828209 220.687805,103.971024 223.244598,119.695961 
	C215.734650,116.228813 208.893875,112.498421 201.650024,109.885483 
	C194.244904,107.214355 186.444397,105.639328 178.653931,103.540558 
	C175.735748,114.869873 171.221451,123.856850 159.696991,127.168678 
	C166.002594,137.812714 162.205322,147.297150 157.211182,156.480347 
	C168.512177,165.959259 185.391129,173.356323 201.582626,175.886215 
	C187.031799,185.106812 178.633194,198.915100 170.598541,213.479935 
	C180.000443,219.270081 187.088608,226.392136 187.014343,238.391434 
	C198.947617,236.084747 206.954315,242.310730 214.438461,250.523483 
	C219.641785,245.884155 224.596268,241.466690 230.050247,236.549454 
z"/>
<path fill="#264B77" opacity="1.000000" stroke="none" 
	d="
M33.020679,268.915100 
	C34.011574,268.832397 35.002464,268.677246 35.993355,268.677277 
	C180.020401,268.679321 324.047455,268.692627 468.564178,269.155090 
	C469.468567,270.116028 469.883270,270.627380 470.298004,271.138733 
	C468.377930,299.618652 460.116333,326.291229 447.163208,351.583984 
	C446.526611,352.826996 444.508759,353.455353 443.025177,354.130676 
	C442.335541,354.444672 441.384430,354.184448 440.551849,354.184448 
	C314.163788,354.184448 187.775742,354.162048 61.387802,354.284668 
	C57.286724,354.288666 55.289833,353.002197 53.514923,349.370911 
	C41.397617,324.580170 33.858803,298.545929 31.836552,270.458984 
	C32.471394,269.558197 32.746037,269.236633 33.020679,268.915100 
M289.872131,321.124634 
	C290.012451,321.442108 290.152771,321.759583 290.556885,322.776123 
	C290.468018,323.506592 290.379120,324.237061 289.550537,324.983063 
	C289.057678,324.990845 288.564850,324.998627 287.565430,324.415405 
	C286.409149,323.621552 285.222748,322.867615 284.104309,322.023621 
	C282.732178,320.988129 280.467346,320.032288 280.261200,318.769012 
	C279.717224,315.435577 280.077057,311.954620 280.077057,308.448975 
	C282.492889,308.269836 284.255463,308.139130 286.138000,307.999542 
	C286.138000,306.095093 286.138000,304.539154 286.138000,302.932739 
	C283.971008,302.627502 282.091278,302.362732 280.301727,302.110687 
	C280.080872,299.971558 279.900208,298.221771 279.715393,296.431519 
	C277.250702,296.431519 275.146393,296.431519 273.200958,296.431519 
	C271.711029,298.662506 274.207031,302.930847 269.373657,302.864899 
	C269.647003,304.641815 269.703888,306.490356 270.260620,308.173523 
	C270.724854,309.577057 272.255676,310.714905 272.462402,312.097748 
	C272.852051,314.703674 272.536957,317.406189 272.680115,320.059692 
	C272.918121,324.471680 275.296143,327.367126 279.649994,327.816895 
	C282.361053,328.097015 285.183350,327.300262 288.762085,326.969482 
	C289.299042,326.943115 289.835968,326.916748 290.952301,327.409546 
	C293.182709,327.564880 295.413147,327.720215 297.342041,327.854553 
	C300.299744,320.564331 292.696655,309.277618 306.447266,307.835419 
	C306.447266,305.692444 306.447266,303.912292 306.447266,301.347473 
	C304.053253,302.031738 302.089233,302.647858 300.093536,303.134216 
	C299.382446,303.307495 298.593842,303.189636 297.842010,303.163971 
	C295.327240,303.078278 292.813080,302.974182 289.642181,303.342224 
	C289.860687,305.276672 290.079224,307.211151 290.559998,310.015656 
	C290.471344,313.650574 290.382690,317.285492 289.872131,321.124634 
M239.801117,307.139587 
	C239.988358,308.082703 240.175598,309.025787 240.632034,310.634033 
	C240.541367,311.094574 240.450714,311.555115 239.766968,312.022522 
	C238.975662,312.021179 238.184341,312.019867 237.086182,311.348328 
	C236.446533,310.001770 235.965744,308.547668 235.139832,307.327179 
	C231.506195,301.957642 223.711548,300.001434 217.200531,302.721985 
	C211.180878,305.237213 207.936157,311.488403 209.377380,317.793762 
	C210.831757,324.156586 216.299713,328.171936 223.478134,328.100159 
	C230.494705,328.029999 235.054855,324.559387 237.937653,317.972839 
	C238.745270,317.976990 239.552887,317.981140 240.631729,318.649261 
	C240.542206,319.110016 240.452667,319.570740 239.922974,320.172516 
	C240.070023,320.771484 240.217072,321.370453 240.642212,322.661163 
	C240.730164,324.280853 240.818100,325.900574 240.901245,327.431824 
	C243.460403,327.431824 245.667465,327.431824 248.094727,327.431824 
	C248.094727,323.231812 248.025970,319.410217 248.111786,315.592133 
	C248.224213,310.589508 250.301880,308.035889 254.185715,308.094971 
	C259.142548,308.170380 259.498688,311.758606 259.555725,315.433044 
	C259.618805,319.494324 259.570160,323.557343 259.570160,327.473206 
	C262.569458,327.473206 264.643616,327.473206 267.023132,327.473206 
	C267.023132,322.661469 267.067963,318.186493 267.014069,313.712769 
	C266.891693,303.554199 260.033417,299.073181 250.534897,302.879150 
	C249.750137,303.193604 248.804474,303.565277 248.045380,303.399261 
	C245.752518,302.897705 243.514801,302.144104 241.044830,301.427643 
	C240.729202,303.904266 240.542755,305.367401 239.801117,307.139587 
M94.142517,327.118500 
	C98.827202,325.246277 101.515373,321.934265 100.994133,316.748199 
	C100.493309,311.765259 96.706894,309.992493 92.486099,308.849335 
	C90.077599,308.196960 87.536041,307.843292 85.298935,306.820374 
	C83.879448,306.171295 82.909409,304.539246 81.737808,303.348053 
	C83.197075,302.233429 84.648781,300.197052 86.117088,300.185028 
	C89.828316,300.154572 93.547005,301.034332 97.649452,301.603088 
	C98.176201,300.148315 98.822281,298.363983 99.566368,296.308960 
	C93.068275,293.384247 86.936287,292.690002 80.678749,294.862549 
	C76.345886,296.366852 73.872787,299.495178 73.879333,304.275208 
	C73.885910,309.075897 76.897881,311.448029 80.970551,312.797668 
	C83.650322,313.685730 86.547974,314.003784 89.113098,315.118011 
	C90.694542,315.804993 91.834129,317.509186 93.172089,318.756683 
	C91.511368,319.831970 89.804512,321.871765 88.198906,321.794922 
	C84.011169,321.594604 79.867798,320.467102 75.298798,319.635101 
	C74.772186,320.890198 74.035576,322.645813 73.244041,324.532349 
	C79.884453,328.518158 86.467697,329.073029 94.142517,327.118500 
M204.854797,325.606720 
	C205.978455,324.649017 207.102112,323.691315 208.550598,322.456726 
	C206.783081,320.792969 205.245239,319.345428 203.744614,317.932892 
	C197.169785,322.647247 191.564087,322.833313 187.359314,318.628937 
	C183.757004,315.026978 183.128372,308.428467 186.512817,304.475555 
	C188.024826,302.709595 190.533722,300.763672 192.611603,300.739532 
	C196.454315,300.694824 200.312775,302.005188 204.915482,302.896484 
	C205.515976,302.323090 206.915817,300.986420 208.311737,299.653503 
	C202.255753,293.300751 193.157532,291.833252 185.644043,295.705963 
	C178.574921,299.349670 175.156342,306.950623 176.928711,315.083679 
	C179.396454,326.407501 192.004898,331.449066 204.854797,325.606720 
M403.377350,326.190033 
	C409.554810,321.557800 411.477020,315.441864 408.692963,309.277496 
	C406.020874,303.361115 399.101868,300.384247 391.767120,301.995300 
	C385.601501,303.349548 381.435913,308.604340 381.486908,314.963684 
	C381.569305,325.248108 391.375214,330.622223 403.377350,326.190033 
M127.210541,322.354950 
	C127.188675,318.704437 127.255211,315.050659 127.121727,311.404236 
	C126.967812,307.199432 125.003044,303.940643 120.961639,302.629883 
	C115.078682,300.721893 109.334915,301.167053 103.734581,304.761383 
	C104.695442,306.488007 105.475494,307.889709 106.226303,309.238892 
	C115.610123,306.501801 117.845543,307.004639 119.376373,312.680237 
	C116.945251,312.680237 114.676498,312.587006 112.417763,312.697845 
	C105.810036,313.022125 102.490852,315.905334 102.834030,320.908569 
	C103.158714,325.642212 107.424881,328.581146 113.489204,328.035980 
	C115.091461,327.891937 116.631691,327.123840 118.218987,326.714325 
	C118.839531,326.554199 119.545441,326.435608 120.153488,326.568329 
	C122.326515,327.042694 124.474243,327.632965 126.972374,328.265686 
	C127.085533,325.912476 127.148170,324.609863 127.210541,322.354950 
M332.078125,312.867889 
	C332.063293,308.383636 330.707733,304.497467 326.212494,302.829620 
	C320.191864,300.595856 314.342804,301.178650 308.554138,304.734192 
	C309.573395,306.562897 310.356140,307.967224 311.110779,309.321167 
	C320.154144,306.381592 322.864990,306.995667 324.060669,312.362610 
	C320.599854,312.605835 317.120911,312.563568 313.757080,313.164948 
	C310.176056,313.805145 307.825317,316.045441 307.691864,319.989716 
	C307.561432,323.843445 309.463104,326.659546 313.058716,327.353638 
	C316.004425,327.922333 319.194031,327.260071 322.272491,327.088989 
	C323.203125,327.037262 324.160645,326.564270 325.041504,326.700439 
	C327.241821,327.040344 329.405243,327.619049 332.080078,328.212006 
	C332.080078,322.710358 332.080078,318.249115 332.078125,312.867889 
M167.657654,320.401520 
	C161.379471,323.394623 157.951431,322.588287 155.133133,317.006561 
	C161.571930,317.006561 167.775467,317.006561 173.909531,317.006561 
	C174.744659,309.080963 171.346161,303.638824 164.931213,302.033844 
	C158.024490,300.305878 151.176651,303.241821 148.442230,309.103394 
	C145.621872,315.149170 147.632263,322.343781 153.110687,325.810547 
	C159.094116,329.596863 167.722610,328.692352 172.343719,323.522308 
	C171.012665,322.367310 169.681473,321.212219 167.657654,320.401520 
M360.617249,307.550201 
	C356.651154,301.897827 350.139679,300.018524 343.480560,302.604187 
	C337.664246,304.862640 334.366547,310.285706 335.069580,316.435944 
	C335.749451,322.383667 340.291992,326.934052 346.537903,327.924164 
	C353.211060,328.981995 358.136322,326.707275 360.518585,321.330170 
	C358.806091,320.446045 357.085083,319.557495 355.499329,318.738800 
	C350.908630,322.494873 347.463379,322.850861 344.638275,320.069122 
	C342.208832,317.677002 342.037567,312.566528 344.299744,309.967377 
	C346.978729,306.889191 350.842407,307.208252 355.805267,311.027924 
	C357.279480,310.108032 358.815399,309.149689 360.617249,307.550201 
M140.975586,308.907440 
	C142.849426,308.531403 144.723267,308.155365 146.804276,307.737762 
	C146.804276,306.149811 146.804276,304.559143 146.804276,302.849762 
	C144.583481,302.594940 142.541916,302.360687 140.439911,302.119507 
	C141.485352,298.248413 141.485352,298.248413 147.285690,297.419769 
	C147.652786,296.116364 148.043076,294.730621 148.421295,293.387756 
	C141.602463,290.170624 135.405457,292.190887 133.485870,298.102936 
	C132.837112,300.101044 133.453094,303.011902 129.906738,302.763000 
	C130.047104,304.561523 130.108521,307.912689 130.339752,307.924469 
	C133.537903,308.087067 133.003159,310.281982 133.005753,312.212952 
	C133.012573,317.299683 133.008072,322.386383 133.008072,327.486511 
	C135.849731,327.486511 138.059677,327.486511 140.696106,327.486511 
	C140.696106,321.368652 140.696106,315.588623 140.975586,308.907440 
M379.105591,321.900055 
	C372.642181,322.162262 371.347778,318.902100 373.837708,308.421967 
	C375.562408,308.278717 377.329254,308.131958 379.222717,307.974701 
	C379.222717,306.113037 379.222717,304.560150 379.222717,302.933472 
	C377.042572,302.620453 375.157806,302.349854 373.333954,302.088013 
	C373.125000,299.977814 372.951477,298.225525 372.773499,296.428284 
	C370.314972,296.428284 368.214111,296.428284 366.269684,296.428284 
	C364.762451,298.639954 367.314789,302.935242 362.453461,302.841675 
	C362.708221,304.628876 362.733704,306.491486 363.289001,308.179840 
	C363.747467,309.573883 365.272705,310.677704 365.537018,312.060760 
	C365.935364,314.145538 365.587402,316.363556 365.660492,318.521423 
	C365.955109,327.224792 373.366852,330.926727 381.115448,326.075592 
	C380.671936,324.883698 380.214417,323.654144 379.105591,321.900055 
M428.730957,307.912537 
	C428.839569,305.966522 428.948151,304.020477 429.107880,301.158813 
	C425.734589,302.218658 423.019562,303.071686 420.304535,303.924713 
	C420.399933,303.517273 420.495361,303.109802 420.590790,302.702362 
	C418.248810,302.375244 415.906830,302.048157 413.279175,301.681122 
	C413.279175,310.734436 413.279175,319.108856 413.279175,327.466431 
	C415.812286,327.466431 418.018402,327.466431 420.096985,327.466431 
	C420.315887,326.795044 420.500793,326.485840 420.505371,326.174011 
	C420.551392,323.017242 420.545563,319.859680 420.597412,316.703064 
	C420.699402,310.496246 421.692139,309.373749 428.730957,307.912537 
z"/>
<path fill="#264B77" opacity="1.000000" stroke="none" 
	d="
M424.015198,360.022766 
	C429.967468,360.022766 435.919678,360.022766 442.684845,360.022766 
	C428.642212,384.649597 410.872620,405.474609 389.121704,422.882202 
	C353.814117,451.139404 313.554352,467.393585 268.472015,470.778137 
	C164.889359,478.554718 90.825882,417.420654 59.637825,359.792511 
	C65.690552,359.792511 71.382141,359.792511 77.566132,360.255737 
	C78.721466,361.856567 79.340439,363.022614 80.053993,364.127533 
	C89.566895,378.858032 101.320831,391.678070 114.166481,403.495728 
	C118.933678,407.881409 120.609367,408.625397 122.917603,403.282471 
	C120.722702,401.271881 118.425301,399.150574 116.109856,397.049164 
	C104.409447,386.430511 93.912071,374.799805 86.099228,360.981293 
	C86.570709,360.542633 86.791771,360.241119 87.012840,359.939606 
	C88.002365,359.851593 88.991882,359.686462 89.981407,359.686493 
	C198.347427,359.687714 306.713440,359.701263 415.544922,360.143982 
	C416.025238,360.785278 416.040070,360.996765 416.003113,361.545654 
	C405.899445,377.653381 393.271759,391.170898 379.218964,403.111633 
	C381.345673,408.870483 384.295197,407.095764 386.872253,404.476807 
	C394.675659,396.546265 402.699158,388.780731 409.891479,380.317474 
	C415.203918,374.066284 419.349670,366.823639 424.015198,360.022766 
M334.239166,426.440338 
	C329.119934,427.521942 326.895966,429.987000 328.080750,433.489502 
	C329.183716,436.750092 331.756104,437.892059 334.820496,436.787903 
	C336.374878,436.227814 337.514313,434.516205 339.352783,433.634979 
	C340.916779,433.237854 342.480743,432.840729 344.696991,432.123688 
	C346.123199,429.736084 347.549408,427.348450 349.694305,424.776215 
	C350.601837,425.858276 351.509369,426.940308 352.416931,428.022369 
	C352.973907,427.761963 353.530853,427.501587 354.087830,427.241211 
	C353.415955,425.622284 352.596436,424.044525 352.129028,422.368622 
	C351.859406,421.402008 352.158539,420.276764 352.201721,419.222900 
	C353.284180,419.602875 354.620300,419.710541 355.389404,420.426941 
	C356.531006,421.490387 357.271088,422.984833 358.182098,424.295837 
	C358.665436,424.127075 359.148773,423.958344 359.632141,423.789581 
	C359.390625,422.527405 359.093536,421.272766 358.921661,420.001190 
	C358.706421,418.409210 358.594025,416.803314 358.437225,415.203430 
	C359.769684,416.166321 361.153168,417.067810 362.414886,418.115845 
	C363.135956,418.714813 363.658813,419.552338 364.270935,420.282471 
	C364.810974,420.055817 365.351013,419.829193 365.891052,419.602539 
	C365.033234,417.671448 364.612488,415.265808 363.186066,413.952148 
	C361.934631,412.799561 359.076233,411.921234 357.764740,412.582336 
	C353.951324,414.504700 350.557983,417.260376 347.049408,419.655396 
	C347.414001,420.868591 347.738464,421.948181 347.263428,423.250977 
	C342.312378,420.771973 340.519836,421.289886 336.711517,426.080536 
	C336.166107,426.219818 335.620667,426.359131 334.239166,426.440338 
M203.573059,441.303589 
	C204.701233,435.638489 204.701233,435.638489 202.196198,434.810272 
	C198.532379,444.082092 198.315948,446.813416 201.131134,448.252045 
	C202.100311,446.140320 203.069489,444.028625 204.484741,442.660095 
	C203.421188,445.968811 204.073868,448.824158 207.512222,449.989868 
	C209.147537,450.544373 211.210739,449.836761 213.080109,449.700897 
	C213.022400,449.146027 212.964691,448.591156 212.906982,448.036255 
	C212.174606,447.946167 211.408981,447.961121 210.717331,447.742279 
	C209.566315,447.378113 208.260452,447.082703 207.430252,446.314636 
	C207.053070,445.965729 207.377365,443.994781 207.875748,443.746063 
	C208.862534,443.253662 210.191010,443.384521 211.378998,443.377075 
	C212.258255,443.371582 213.138687,443.554871 214.944229,443.746368 
	C215.640778,451.489960 215.640778,451.489960 224.796524,452.726379 
	C225.247192,449.552490 225.697189,446.383392 226.147171,443.214294 
	C225.544556,442.990448 224.941940,442.766602 224.339325,442.542755 
	C223.791473,443.962219 223.408585,445.479004 222.645966,446.771759 
	C221.980591,447.899689 220.887268,448.775146 219.983002,449.762115 
	C219.458298,448.572937 218.661346,447.423035 218.482651,446.183960 
	C218.289795,444.846771 218.675201,443.426178 218.849731,441.611877 
	C216.859207,442.098267 215.470062,442.437714 213.931183,442.081573 
	C210.654160,438.175293 207.318771,440.645569 203.573059,441.303589 
M287.660278,442.985718 
	C285.597717,442.525024 283.535156,442.064331 280.910217,441.478058 
	C281.447235,445.007843 281.616364,447.314667 282.215851,449.503632 
	C282.475281,450.450958 283.622498,451.155151 284.366394,451.969818 
	C284.644897,451.014801 285.246033,450.022461 285.140808,449.111786 
	C284.837891,446.490417 284.520142,444.043091 288.342468,444.314331 
	C288.621490,447.949188 290.238861,450.390961 294.210754,450.153595 
	C298.660187,449.887665 299.948730,446.904449 300.595642,442.898132 
	C303.192200,448.517273 303.587128,448.587921 312.100250,444.810333 
	C311.522736,442.790833 311.077637,440.676361 310.286987,438.700104 
	C309.879120,437.680695 308.856842,436.907135 308.112183,436.022491 
	C307.842041,437.128845 307.504578,438.223938 307.317810,439.344208 
	C307.050049,440.950104 306.892334,442.574402 306.687622,444.190826 
	C305.529175,442.935486 304.349518,441.698822 303.220062,440.417908 
	C302.532684,439.638367 301.922760,438.790558 301.278076,437.973389 
	C300.911865,439.040863 300.507172,440.097229 300.194672,441.180206 
	C300.022827,441.775726 300.006226,442.416077 299.298248,442.759491 
	C295.392181,438.182129 292.375946,438.430145 287.660278,442.985718 
M268.676575,449.824463 
	C271.229004,451.141632 273.781464,452.458771 276.498383,453.860779 
	C274.629547,454.261536 272.351166,454.750092 270.072784,455.238678 
	C270.202515,455.927887 270.332275,456.617096 270.462006,457.306274 
	C273.158447,456.808197 277.679535,457.022461 278.204895,455.676788 
	C279.705170,451.833740 279.581207,447.356567 280.118988,442.941254 
	C269.204773,443.510529 269.204773,443.510529 267.335266,449.340363 
	C265.609833,448.669556 263.884399,447.998749 261.130859,446.928223 
	C263.780518,446.463928 265.338013,446.191010 266.895508,445.918091 
	C266.866791,445.348572 266.838074,444.779083 266.809357,444.209564 
	C264.688232,444.377106 262.053955,443.804565 260.543060,444.852173 
	C256.161530,447.890259 260.372253,449.496002 262.473267,451.237427 
	C261.103333,451.861755 260.055603,452.339203 258.611755,452.997223 
	C264.802887,455.671600 267.121979,454.677887 268.676575,449.824463 
M169.534592,428.645782 
	C169.434830,431.137207 169.045044,433.672302 169.409805,436.093781 
	C169.521042,436.832245 171.755447,437.773987 172.930939,437.667419 
	C173.912872,437.578430 174.768356,436.094513 175.414444,435.480530 
	C176.221848,437.499664 176.954483,439.331787 177.687119,441.163940 
	C179.329422,439.974457 181.076920,438.902740 182.581284,437.558868 
	C183.821762,436.450714 184.774368,435.020325 185.854553,433.732727 
	C185.499344,433.356201 185.144150,432.979706 184.788956,432.603180 
	C182.990875,433.901154 181.192795,435.199097 179.605026,436.345245 
	C179.019928,434.294403 178.432770,432.236328 177.845612,430.178284 
	C176.026001,431.356750 174.206406,432.535217 172.362335,433.729523 
	C171.469330,431.341949 174.176300,427.195190 168.649124,426.309479 
	C166.763565,427.132599 164.878006,427.955688 163.383377,428.608154 
	C162.834244,426.604614 162.311234,424.696472 161.788254,422.788300 
	C159.946228,423.779266 158.104202,424.770233 157.175659,425.269775 
	C156.160706,423.038300 155.709885,419.872528 154.115860,419.116272 
	C152.295151,418.252380 149.457016,419.532898 147.425629,419.828552 
	C147.208359,418.213470 146.926254,416.116333 146.644135,414.019196 
	C144.581375,414.926422 142.518616,415.833649 140.587616,416.682953 
	C140.751099,414.253815 140.893188,412.142548 141.035294,410.031281 
	C140.452789,410.011108 139.870285,409.990936 139.287781,409.970734 
	C138.670425,412.490234 137.930923,414.988983 137.498062,417.539764 
	C137.333603,418.508759 137.551880,420.047028 138.186508,420.502319 
	C138.793579,420.937805 140.193634,420.395660 141.196701,420.112000 
	C142.033997,419.875183 142.801208,419.390594 143.363312,419.126617 
	C143.808228,421.250488 144.178970,423.020233 144.549698,424.790009 
	C146.238083,424.034180 147.987610,423.387695 149.595779,422.488403 
	C150.913162,421.751709 152.062195,420.713989 153.182663,419.885956 
	C153.487030,423.687134 153.750061,426.972229 154.013092,430.257294 
	C155.933502,429.444427 157.853928,428.631561 159.905396,427.763245 
	C159.843414,428.490143 159.638962,429.317749 159.736755,430.107971 
	C159.884186,431.298950 160.242828,432.463837 160.511673,433.639801 
	C161.760178,433.157227 163.175034,432.902679 164.219666,432.140656 
	C165.950333,430.878143 167.442703,429.288971 169.534592,428.645782 
M299.278259,381.622284 
	C299.966187,383.796448 300.654114,385.970642 301.602081,389.014801 
	C301.602081,392.576294 301.602081,396.137787 301.602081,399.918365 
	C308.225983,399.918365 314.024048,399.918365 320.620026,399.979004 
	C321.152527,399.952484 321.684998,399.925964 323.122192,399.883240 
	C327.752899,399.691406 332.474640,400.001465 336.991638,399.182495 
	C342.824860,398.124908 346.040710,393.473999 345.976776,387.683685 
	C345.914215,382.017609 342.387299,377.134796 336.708618,376.358093 
	C331.920258,375.703156 326.971222,376.223297 321.724915,376.223297 
	C321.724915,382.707245 321.724915,388.837921 321.037415,394.994537 
	C320.581055,395.048645 320.124725,395.102753 318.781982,395.258911 
	C315.001617,395.258911 311.221252,395.258911 307.308075,395.258911 
	C307.308075,393.272888 307.308075,391.735291 307.308075,389.819061 
	C311.037903,389.819061 314.470459,389.819061 317.902985,389.819061 
	C318.208862,389.302582 318.514709,388.786102 318.820587,388.269623 
	C317.581696,387.325317 316.466339,386.031464 315.068359,385.537537 
	C313.738220,385.067596 312.104889,385.333466 310.618835,385.451416 
	C307.060730,385.733826 306.191376,384.280060 307.477844,381.169983 
	C319.684875,380.588501 319.684875,380.588501 319.423859,375.876709 
	C314.174988,375.876709 308.889008,375.792633 303.611755,375.969330 
	C302.839142,375.995209 302.108124,377.262482 300.730804,377.997406 
	C300.521851,378.001526 300.312927,378.005676 300.103302,377.168091 
	C296.404388,375.028076 295.596924,375.191803 294.001282,378.678711 
	C291.977478,383.101288 290.044617,387.565460 287.772339,392.688416 
	C285.740112,387.927979 283.852753,384.196442 282.554016,380.270172 
	C281.263702,376.369385 279.151001,374.844177 274.809875,376.427307 
	C277.681183,383.133209 280.416443,389.885284 283.512360,396.467773 
	C284.191864,397.912506 286.260895,399.754852 287.499054,399.622864 
	C289.088409,399.453430 291.048615,397.769562 291.860382,396.220184 
	C294.468140,391.242706 296.620941,386.026855 299.278259,381.622284 
M253.058624,379.658112 
	C249.119049,385.542389 249.015335,391.138824 252.761963,395.667175 
	C256.385590,400.046844 263.088013,401.530579 268.680847,399.191040 
	C274.063995,396.939301 276.892395,391.972565 276.119965,385.951752 
	C275.540588,381.435883 272.964294,378.241425 268.858612,376.585999 
	C263.358154,374.368103 258.131317,375.032684 253.058624,379.658112 
M241.484192,397.082062 
	C243.630005,398.301758 245.775833,399.521423 247.921661,400.741089 
	C248.243378,400.280731 248.565109,399.820374 248.886826,399.360016 
	C247.419312,397.046570 245.951782,394.733154 244.338623,392.190155 
	C248.196259,389.832092 250.194733,386.259399 248.521225,382.381104 
	C247.432892,379.858887 244.557510,377.023438 242.009521,376.456940 
	C237.652466,375.488281 232.924118,376.189697 228.357513,376.189697 
	C228.357513,384.244324 228.357513,391.845459 228.357513,399.616699 
	C230.195450,399.616699 231.766098,399.616699 233.618988,399.616699 
	C233.754089,397.444397 233.874405,395.509888 234.111969,391.689880 
	C237.077026,393.724030 239.059845,395.084351 241.484192,397.082062 
M159.287003,388.762817 
	C157.780762,392.309174 156.274506,395.855530 154.768265,399.401886 
	C155.263016,399.858246 155.757782,400.314606 156.252533,400.770996 
	C158.001419,399.408539 160.075058,398.306030 161.422577,396.622345 
	C163.411652,394.137146 172.835861,393.720703 173.985657,396.631805 
	C175.475098,400.402893 177.742523,400.379425 181.126053,399.299286 
	C177.905670,392.064514 174.913498,385.064178 171.614914,378.211334 
	C171.077316,377.094513 169.191299,376.041656 167.917633,376.028687 
	C166.642715,376.015686 164.798523,377.031586 164.177078,378.141479 
	C162.402435,381.310944 161.122421,384.757355 159.287003,388.762817 
M182.175430,397.091492 
	C182.248917,401.766602 185.399673,399.248901 187.627060,399.822784 
	C187.821854,397.448303 187.979477,395.527130 188.151794,393.426666 
	C190.879395,393.261902 193.397842,393.381165 195.798477,392.905670 
	C200.184097,392.037048 202.930420,389.414154 203.023819,384.676941 
	C203.112396,380.183563 200.673264,377.043396 196.531250,376.430969 
	C191.906815,375.747192 187.103378,376.274139 182.161377,376.274139 
	C182.161377,383.198792 182.161377,389.682373 182.175430,397.091492 
M210.568756,375.871124 
	C208.830261,375.871124 207.091766,375.871124 205.409576,375.871124 
	C205.409576,384.292877 205.409576,391.892029 205.409576,399.595642 
	C207.269775,399.595642 208.843033,399.595642 210.595322,399.595642 
	C210.787704,397.419220 210.957138,395.502411 211.143723,393.391571 
	C213.710587,393.261414 216.036087,393.312622 218.309448,392.992950 
	C223.061096,392.324890 225.957260,389.073761 226.003067,384.642731 
	C226.048721,380.226929 223.196182,376.835541 218.493942,376.120728 
	C216.207626,375.773163 213.843369,375.938324 210.568756,375.871124 
M237.725296,444.922211 
	C234.631500,444.343323 231.537704,443.764435 228.208282,443.141479 
	C227.943665,445.954773 227.541672,448.090271 227.622971,450.207245 
	C227.668060,451.381409 228.520645,452.524536 229.009247,453.681671 
	C229.574692,452.641846 230.143448,451.603790 230.704803,450.561768 
	C231.470993,449.139496 232.231537,447.714172 232.994476,446.290131 
	C233.544464,447.797577 234.104034,449.301575 234.641129,450.813599 
	C235.027237,451.900574 235.383362,452.998199 235.752823,454.091064 
	C236.416519,453.176239 237.175415,452.314453 237.721298,451.334045 
	C238.513931,449.910492 239.152786,448.401367 239.857239,446.928711 
	C240.481140,448.520477 241.166275,450.092194 241.696716,451.714508 
	C241.890167,452.306152 241.513733,453.490601 241.745560,453.589691 
	C242.551758,453.934204 243.510666,453.921448 244.411484,454.044586 
	C244.439468,451.439606 245.135010,448.559998 244.222610,446.341858 
	C243.744034,445.178375 240.447205,445.174194 237.725296,444.922211 
M323.131409,440.591858 
	C322.601746,438.220459 322.445465,434.012848 321.473846,433.815338 
	C318.313904,433.172852 314.855713,433.997162 310.886505,434.305511 
	C312.852600,439.741394 314.373871,443.947388 315.766174,447.796753 
	C318.445160,445.260406 320.568756,443.249908 323.131409,440.591858 
M188.668549,444.634705 
	C191.081909,445.502960 193.495270,446.371246 196.202805,447.345337 
	C197.110046,443.576111 200.302734,440.171509 196.423355,437.058960 
	C194.982681,435.902985 192.378098,436.197693 190.304276,435.830872 
	C190.260056,436.324219 190.215836,436.817566 190.171631,437.310913 
	C191.763855,437.945923 193.356094,438.580933 195.757812,439.538788 
	C192.167404,440.738831 187.130905,437.511871 188.668549,444.634705 
M247.099487,451.927399 
	C249.416901,457.041992 253.563995,453.710297 256.771423,454.405823 
	C256.771423,450.851135 256.771423,447.657410 256.771423,444.463684 
	C256.254395,444.365753 255.737396,444.267853 255.220383,444.169952 
	C254.858124,445.562256 254.653137,447.022491 254.089325,448.327728 
	C253.526367,449.631012 252.604111,450.779083 251.839355,451.995209 
	C251.220917,450.825500 250.493622,449.698517 250.013062,448.474670 
	C249.475601,447.105927 249.161804,445.649384 248.750687,444.231049 
	C248.150925,444.402496 247.551147,444.573914 246.951385,444.745361 
	C246.951385,446.855957 246.951385,448.966553 247.099487,451.927399 
z"/>
<path fill="#274C78" opacity="1.000000" stroke="none" 
	d="
M229.800507,236.799347 
	C224.596268,241.466690 219.641785,245.884155 214.438461,250.523483 
	C206.954315,242.310730 198.947617,236.084747 187.014343,238.391434 
	C187.088608,226.392136 180.000443,219.270081 170.598541,213.479935 
	C178.633194,198.915100 187.031799,185.106812 201.582626,175.886215 
	C185.391129,173.356323 168.512177,165.959259 157.211182,156.480347 
	C162.205322,147.297150 166.002594,137.812714 159.696991,127.168678 
	C171.221451,123.856850 175.735748,114.869873 178.653931,103.540558 
	C186.444397,105.639328 194.244904,107.214355 201.650024,109.885483 
	C208.893875,112.498421 215.734650,116.228813 223.244598,119.695961 
	C220.687805,103.971024 223.724167,88.828209 228.289139,73.472275 
	C239.045746,75.685913 249.189392,75.938019 257.329437,66.850319 
	C263.953094,76.913834 273.962158,78.240471 285.063385,77.744514 
	C287.404724,93.628914 288.290710,109.197258 282.510345,125.761040 
	C297.795258,117.852837 313.251007,115.831413 328.831177,115.571243 
	C330.422577,120.780449 331.177094,126.061707 333.606232,130.406799 
	C336.010559,134.707565 340.104553,138.063721 343.807037,142.227402 
	C337.333679,150.612259 339.036957,160.491852 342.928406,170.369095 
	C332.161346,177.810226 311.315216,183.511993 295.924683,183.021866 
	C308.717072,194.467529 315.085052,209.079453 320.631470,224.100266 
	C316.290222,227.112045 311.501404,229.449173 308.089050,233.079941 
	C304.708038,236.677353 302.714661,241.578934 299.725616,246.552475 
	C290.015747,243.226257 281.005646,247.430313 272.384979,254.915115 
	C261.186890,242.899384 250.577713,230.767349 246.633041,215.365570 
	C241.349228,222.115448 235.699738,229.332458 229.800507,236.799347 
M228.979401,129.469910 
	C228.740356,129.498215 228.501312,129.526520 228.262268,129.554825 
	C228.458923,129.753967 228.655579,129.953125 228.714081,130.964142 
	C230.751633,138.851074 232.666794,146.772781 234.893234,154.606033 
	C235.671463,157.344101 235.128204,158.689941 232.599396,160.099289 
	C225.103241,164.277084 217.793747,168.789825 210.411270,173.171616 
	C210.491058,173.496918 210.570862,173.822205 210.650650,174.147507 
	C220.335648,174.752350 230.020630,175.357178 239.804398,175.968185 
	C241.999359,185.593445 244.139877,194.980026 246.280396,204.366608 
	C250.356796,196.746536 253.570145,188.974228 256.435181,181.075562 
	C257.460175,178.249878 258.618622,177.278854 261.789642,177.675751 
	C270.268616,178.737030 278.808105,179.314850 287.323547,180.084763 
	C287.444946,179.774765 287.566345,179.464767 287.687714,179.154755 
	C280.168976,172.980362 272.650238,166.805969 265.108185,160.612427 
	C268.962067,151.538010 272.747131,142.625671 276.532196,133.713318 
	C276.191528,133.515793 275.850861,133.318253 275.510193,133.120728 
	C267.440125,138.290207 259.370056,143.459686 251.502136,148.499680 
	C243.844055,142.172897 236.445923,136.060898 228.979401,129.469910 
M307.348877,225.761353 
	C309.233887,224.478867 311.118896,223.196381 313.302460,221.710754 
	C310.962921,216.710312 308.885620,211.842010 306.434937,207.169571 
	C304.514343,203.507828 302.341187,199.936539 299.915100,196.589767 
	C292.462738,186.309418 281.204132,182.466873 268.611725,185.648529 
	C284.942200,196.687714 294.667786,212.552185 301.316193,230.873230 
	C303.265503,229.189011 305.012024,227.679962 307.348877,225.761353 
M292.134247,143.575623 
	C303.812927,138.390457 316.204285,136.484497 328.997955,135.878235 
	C327.338074,131.109940 325.783173,126.643196 323.802094,120.952118 
	C314.037964,123.040489 304.100739,124.787140 294.385956,127.370377 
	C287.337616,129.244598 282.120117,133.680328 279.917694,141.174088 
	C278.846252,144.819656 276.983246,148.232574 275.034027,152.790253 
	C281.103394,149.496490 286.271210,146.691986 292.134247,143.575623 
M228.636703,109.423157 
	C227.205048,123.532501 238.688324,128.876160 247.158905,136.488937 
	C240.980133,117.681023 242.115250,98.940033 247.521957,80.310059 
	C242.222443,80.310059 237.627594,80.310059 231.891754,80.310059 
	C230.797684,89.751114 229.714111,99.101532 228.636703,109.423157 
M186.428925,150.132278 
	C180.751953,147.072250 175.074982,144.012238 169.315796,140.907898 
	C167.946915,145.370560 166.560501,149.890335 164.907364,155.279709 
	C172.407059,158.926666 180.000198,162.559845 187.540924,166.298767 
	C201.486267,173.213333 212.102936,166.334732 223.049881,157.854538 
	C210.095261,157.997940 198.325897,155.537537 186.428925,150.132278 
M210.381104,226.887497 
	C207.827179,229.100266 205.273270,231.313034 202.728485,233.517883 
	C206.887756,236.433029 210.676437,239.088425 214.887970,242.040192 
	C218.815536,238.361328 223.102905,234.696945 226.960190,230.625137 
	C230.259033,227.142899 233.353561,223.387680 236.028381,219.410156 
	C241.638336,211.067993 241.209885,197.153152 235.369583,188.267548 
	C231.023453,203.476944 222.327988,215.825302 210.381104,226.887497 
z"/>
<path fill="#264B77" opacity="1.000000" stroke="none" 
	d="
M45.979691,262.960754 
	C41.171230,262.960754 36.362774,262.960754 30.582661,262.960754 
	C28.844917,185.000610 57.431839,121.313705 119.725807,74.076912 
	C190.573242,20.354124 288.593109,15.992407 364.657104,62.054615 
	C446.313049,111.503136 476.006744,197.391174 470.716248,263.139526 
	C466.161652,263.139526 461.550873,263.139526 456.481995,262.591248 
	C455.698395,250.469742 455.834259,238.861298 454.952637,227.330612 
	C453.040710,202.322937 445.490234,178.797363 434.111694,156.595871 
	C421.853271,132.677414 405.428894,111.935524 384.974335,94.339172 
	C365.298370,77.412659 343.228271,64.775894 318.852264,56.120667 
	C289.879364,45.833195 260.049072,42.981136 229.503281,45.897022 
	C207.782715,47.970455 187.032043,53.546677 167.224869,62.468407 
	C139.707184,74.863174 115.927330,92.356430 96.081726,115.257072 
	C79.327095,134.590912 66.603485,156.141998 57.775967,180.135834 
	C47.915653,206.936890 44.690952,234.609253 45.979691,262.960754 
z"/>
<path fill="#6B779A" opacity="1.000000" stroke="none" 
	d="
M46.421879,263.038422 
	C44.690952,234.609253 47.915653,206.936890 57.775967,180.135834 
	C66.603485,156.141998 79.327095,134.590912 96.081726,115.257072 
	C115.927330,92.356430 139.707184,74.863174 167.224869,62.468407 
	C187.032043,53.546677 207.782715,47.970455 229.503281,45.897022 
	C260.049072,42.981136 289.879364,45.833195 318.852264,56.120667 
	C343.228271,64.775894 365.298370,77.412659 384.974335,94.339172 
	C405.428894,111.935524 421.853271,132.677414 434.111694,156.595871 
	C445.490234,178.797363 453.040710,202.322937 454.952637,227.330612 
	C455.834259,238.861298 455.698395,250.469742 456.023376,262.498901 
	C454.220459,262.954895 452.418060,262.954895 450.238281,262.954895 
	C452.790466,195.420273 429.126343,139.193695 377.182922,95.916069 
	C337.892914,63.180893 291.954285,48.531891 240.971115,51.110649 
	C185.746597,53.903938 139.295349,76.257866 102.408653,117.377899 
	C65.482147,158.542297 49.348217,207.370270 51.938812,262.881073 
	C50.041943,262.968903 48.453003,263.042480 46.421879,263.038422 
z"/>
<path fill="#677498" opacity="1.000000" stroke="none" 
	d="
M85.848801,361.118439 
	C93.912071,374.799805 104.409447,386.430511 116.109856,397.049164 
	C118.425301,399.150574 120.722702,401.271881 122.917603,403.282471 
	C120.609367,408.625397 118.933678,407.881409 114.166481,403.495728 
	C101.320831,391.678070 89.566895,378.858032 80.053993,364.127533 
	C79.340439,363.022614 78.721466,361.856567 78.022141,360.368896 
	C80.015976,359.922943 82.046188,359.826996 84.594810,360.066101 
	C85.358414,360.640289 85.603607,360.879364 85.848801,361.118439 
z"/>
<path fill="#677498" opacity="1.000000" stroke="none" 
	d="
M423.592255,359.909607 
	C419.349670,366.823639 415.203918,374.066284 409.891479,380.317474 
	C402.699158,388.780731 394.675659,396.546265 386.872253,404.476807 
	C384.295197,407.095764 381.345673,408.870483 379.218964,403.111633 
	C393.271759,391.170898 405.899445,377.653381 416.239075,361.384094 
	C416.709778,360.558044 416.892700,360.231018 417.075623,359.903992 
	C419.106873,359.868134 421.138092,359.832275 423.592255,359.909607 
z"/>
<path fill="#E0E4EB" opacity="1.000000" stroke="none" 
	d="
M328.010742,86.129135 
	C328.853760,87.278267 329.696747,88.427399 330.539124,89.575706 
	C328.929138,90.629982 327.302643,91.695068 325.636719,92.785973 
	C322.629578,90.777313 318.295624,89.639099 319.205048,84.613731 
	C319.329926,83.923538 321.162445,83.542366 322.619110,83.344940 
	C322.984558,84.121040 322.935242,84.570328 322.581726,85.046738 
	C322.488922,86.368118 322.700348,87.662392 323.246521,89.030357 
	C324.596069,88.111847 325.610870,87.119637 326.971741,86.206543 
	C327.548737,86.233482 327.779724,86.181313 328.010742,86.129135 
z"/>
<path fill="#E0E4EB" opacity="1.000000" stroke="none" 
	d="
M323.967194,81.531876 
	C323.968781,78.913223 325.822845,77.985573 327.226410,79.635246 
	C328.102631,80.665146 333.106537,80.292068 329.115051,83.714111 
	C328.063965,83.181572 327.566742,82.818748 326.843811,82.201279 
	C325.734497,81.808372 324.850830,81.670120 323.967194,81.531876 
z"/>
<path fill="#3A5B83" opacity="1.000000" stroke="none" 
	d="
M323.796814,81.776474 
	C324.850830,81.670120 325.734497,81.808372 326.836578,82.560417 
	C327.019012,83.410873 326.983002,83.647537 326.703644,83.724930 
	C326.011627,83.779121 325.562958,83.992577 325.114288,84.206047 
	C325.705292,84.453949 326.296265,84.701851 326.839417,85.248062 
	C326.736267,85.740059 326.680969,85.933739 326.625671,86.127426 
	C325.610870,87.119637 324.596069,88.111847 323.277191,88.638504 
	C322.944061,87.121841 322.914978,86.070732 322.885925,85.019623 
	C322.935242,84.570328 322.984558,84.121040 322.991394,83.333992 
	C323.174744,82.671181 323.400604,82.346123 323.796814,81.776474 
z"/>
<path fill="#173F6E" opacity="1.000000" stroke="none" 
	d="
M470.455933,270.869995 
	C469.883270,270.627380 469.468567,270.116028 469.022339,269.260498 
	C469.531830,269.477966 470.072845,270.039642 470.455933,270.869995 
z"/>
<path fill="#173F6E" opacity="1.000000" stroke="none" 
	d="
M326.946991,83.884201 
	C326.983002,83.647537 327.019012,83.410873 327.062256,82.815063 
	C327.566742,82.818748 328.063965,83.181572 328.768127,83.782570 
	C328.743317,84.550369 328.511597,85.079994 328.145325,85.869385 
	C327.779724,86.181313 327.548737,86.233482 326.971741,86.206535 
	C326.680969,85.933739 326.736267,85.740059 326.915771,84.984741 
	C327.008972,84.243477 326.977966,84.063835 326.946991,83.884201 
z"/>
<path fill="#173F6E" opacity="1.000000" stroke="none" 
	d="
M86.099220,360.981293 
	C85.603607,360.879364 85.358414,360.640289 85.021919,360.156586 
	C85.396652,359.860291 85.862686,359.808655 86.670784,359.848297 
	C86.791771,360.241119 86.570709,360.542633 86.099220,360.981293 
z"/>
<path fill="#173F6E" opacity="1.000000" stroke="none" 
	d="
M32.615204,268.895935 
	C32.746037,269.236633 32.471394,269.558197 31.897976,270.007935 
	C31.802708,269.716309 32.006218,269.296570 32.615204,268.895935 
z"/>
<path fill="#173F6E" opacity="1.000000" stroke="none" 
	d="
M416.802887,359.842896 
	C416.892700,360.231018 416.709778,360.558044 416.290894,361.046661 
	C416.040070,360.996765 416.025238,360.785278 416.001892,360.255951 
	C416.172363,359.885956 416.351257,359.833862 416.802887,359.842896 
z"/>
<path fill="#F6F7F9" opacity="1.000000" stroke="none" 
	d="
M93.756134,327.254944 
	C86.467697,329.073029 79.884453,328.518158 73.244041,324.532349 
	C74.035576,322.645813 74.772186,320.890198 75.298798,319.635101 
	C79.867798,320.467102 84.011169,321.594604 88.198906,321.794922 
	C89.804512,321.871765 91.511368,319.831970 93.172089,318.756683 
	C91.834129,317.509186 90.694542,315.804993 89.113098,315.118011 
	C86.547974,314.003784 83.650322,313.685730 80.970551,312.797668 
	C76.897881,311.448029 73.885910,309.075897 73.879333,304.275208 
	C73.872787,299.495178 76.345886,296.366852 80.678749,294.862549 
	C86.936287,292.690002 93.068275,293.384247 99.566368,296.308960 
	C98.822281,298.363983 98.176201,300.148315 97.649452,301.603088 
	C93.547005,301.034332 89.828316,300.154572 86.117088,300.185028 
	C84.648781,300.197052 83.197075,302.233429 81.737808,303.348053 
	C82.909409,304.539246 83.879448,306.171295 85.298935,306.820374 
	C87.536041,307.843292 90.077599,308.196960 92.486099,308.849335 
	C96.706894,309.992493 100.493309,311.765259 100.994133,316.748199 
	C101.515373,321.934265 98.827202,325.246277 93.756134,327.254944 
z"/>
<path fill="#F8F9FA" opacity="1.000000" stroke="none" 
	d="
M204.520416,325.794708 
	C192.004898,331.449066 179.396454,326.407501 176.928711,315.083679 
	C175.156342,306.950623 178.574921,299.349670 185.644043,295.705963 
	C193.157532,291.833252 202.255753,293.300751 208.311737,299.653503 
	C206.915817,300.986420 205.515976,302.323090 204.915482,302.896484 
	C200.312775,302.005188 196.454315,300.694824 192.611603,300.739532 
	C190.533722,300.763672 188.024826,302.709595 186.512817,304.475555 
	C183.128372,308.428467 183.757004,315.026978 187.359314,318.628937 
	C191.564087,322.833313 197.169785,322.647247 203.744614,317.932892 
	C205.245239,319.345428 206.783081,320.792969 208.550598,322.456726 
	C207.102112,323.691315 205.978455,324.649017 204.520416,325.794708 
z"/>
<path fill="#F6F7F9" opacity="1.000000" stroke="none" 
	d="
M237.331360,317.981110 
	C235.054855,324.559387 230.494705,328.029999 223.478134,328.100159 
	C216.299713,328.171936 210.831757,324.156586 209.377380,317.793762 
	C207.936157,311.488403 211.180878,305.237213 217.200531,302.721985 
	C223.711548,300.001434 231.506195,301.957642 235.139832,307.327179 
	C235.965744,308.547668 236.446533,310.001770 237.220245,312.109863 
	C237.346649,314.574646 237.339005,316.277863 237.331360,317.981110 
M229.716431,312.977142 
	C228.647476,309.288849 226.090851,306.925323 222.434677,308.076630 
	C220.251450,308.764130 217.812057,311.242767 217.099655,313.439056 
	C215.735550,317.644562 218.503113,321.361542 222.382996,321.896454 
	C226.853134,322.512756 229.461884,319.663086 229.716431,312.977142 
z"/>
<path fill="#F8F9FA" opacity="1.000000" stroke="none" 
	d="
M403.046692,326.394226 
	C391.375214,330.622223 381.569305,325.248108 381.486908,314.963684 
	C381.435913,308.604340 385.601501,303.349548 391.767120,301.995300 
	C399.101868,300.384247 406.020874,303.361115 408.692963,309.277496 
	C411.477020,315.441864 409.554810,321.557800 403.046692,326.394226 
M402.092621,316.168762 
	C402.392242,311.908020 401.288391,308.481995 396.430267,307.880493 
	C392.551270,307.400177 390.000183,309.385864 389.262970,313.143036 
	C388.525513,316.901611 389.587769,320.279816 393.538269,321.552673 
	C397.653412,322.878632 400.596069,321.148438 402.092621,316.168762 
z"/>
<path fill="#F6F7F9" opacity="1.000000" stroke="none" 
	d="
M127.210678,322.831085 
	C127.148170,324.609863 127.085533,325.912476 126.972374,328.265686 
	C124.474243,327.632965 122.326515,327.042694 120.153488,326.568329 
	C119.545441,326.435608 118.839531,326.554199 118.218987,326.714325 
	C116.631691,327.123840 115.091461,327.891937 113.489204,328.035980 
	C107.424881,328.581146 103.158714,325.642212 102.834030,320.908569 
	C102.490852,315.905334 105.810036,313.022125 112.417763,312.697845 
	C114.676498,312.587006 116.945251,312.680237 119.376373,312.680237 
	C117.845543,307.004639 115.610123,306.501801 106.226303,309.238892 
	C105.475494,307.889709 104.695442,306.488007 103.734581,304.761383 
	C109.334915,301.167053 115.078682,300.721893 120.961639,302.629883 
	C125.003044,303.940643 126.967812,307.199432 127.121727,311.404236 
	C127.255211,315.050659 127.188675,318.704437 127.210678,322.831085 
M118.740593,321.243866 
	C119.131866,319.992157 119.523148,318.740479 120.071594,316.985992 
	C117.786446,316.985992 116.181107,316.600586 114.899780,317.080383 
	C113.172356,317.727295 111.694382,319.040405 110.109367,320.067627 
	C111.900055,321.029694 113.624168,322.178314 115.517143,322.853668 
	C116.189064,323.093414 117.271744,322.181915 118.740593,321.243866 
z"/>
<path fill="#F9FAFB" opacity="1.000000" stroke="none" 
	d="
M240.360062,312.015656 
	C240.450714,311.555115 240.541367,311.094574 240.616669,310.000732 
	C240.519623,308.521790 240.437958,307.676147 240.356293,306.830536 
	C240.542755,305.367401 240.729202,303.904266 241.044830,301.427643 
	C243.514801,302.144104 245.752518,302.897705 248.045380,303.399261 
	C248.804474,303.565277 249.750137,303.193604 250.534897,302.879150 
	C260.033417,299.073181 266.891693,303.554199 267.014069,313.712769 
	C267.067963,318.186493 267.023132,322.661469 267.023132,327.473206 
	C264.643616,327.473206 262.569458,327.473206 259.570160,327.473206 
	C259.570160,323.557343 259.618805,319.494324 259.555725,315.433044 
	C259.498688,311.758606 259.142548,308.170380 254.185715,308.094971 
	C250.301880,308.035889 248.224213,310.589508 248.111786,315.592133 
	C248.025970,319.410217 248.094727,323.231812 248.094727,327.431824 
	C245.667465,327.431824 243.460403,327.431824 240.901245,327.431824 
	C240.818100,325.900574 240.730164,324.280853 240.618164,321.998993 
	C240.517136,320.901703 240.440140,320.466614 240.363159,320.031494 
	C240.452667,319.570740 240.542206,319.110016 240.617340,317.903137 
	C240.521973,315.443237 240.441025,313.729462 240.360062,312.015656 
z"/>
<path fill="#F8F9FA" opacity="1.000000" stroke="none" 
	d="
M332.079102,313.327881 
	C332.080078,318.249115 332.080078,322.710358 332.080078,328.212006 
	C329.405243,327.619049 327.241821,327.040344 325.041504,326.700439 
	C324.160645,326.564270 323.203125,327.037262 322.272491,327.088989 
	C319.194031,327.260071 316.004425,327.922333 313.058716,327.353638 
	C309.463104,326.659546 307.561432,323.843445 307.691864,319.989716 
	C307.825317,316.045441 310.176056,313.805145 313.757080,313.164948 
	C317.120911,312.563568 320.599854,312.605835 324.060669,312.362610 
	C322.864990,306.995667 320.154144,306.381592 311.110779,309.321167 
	C310.356140,307.967224 309.573395,306.562897 308.554138,304.734192 
	C314.342804,301.178650 320.191864,300.595856 326.212494,302.829620 
	C330.707733,304.497467 332.063293,308.383636 332.079102,313.327881 
M324.078339,320.552948 
	C324.114838,319.488281 324.151306,318.423615 324.187805,317.358948 
	C321.480469,317.522491 318.745697,317.531586 316.093018,318.002686 
	C315.654633,318.080536 315.575317,320.180603 315.330048,321.346130 
	C317.712616,321.607086 320.092102,321.911316 322.481110,322.082062 
	C322.836761,322.107483 323.237335,321.504578 324.078339,320.552948 
z"/>
<path fill="#F8F9FA" opacity="1.000000" stroke="none" 
	d="
M168.003967,320.229309 
	C169.681473,321.212219 171.012665,322.367310 172.343719,323.522308 
	C167.722610,328.692352 159.094116,329.596863 153.110687,325.810547 
	C147.632263,322.343781 145.621872,315.149170 148.442230,309.103394 
	C151.176651,303.241821 158.024490,300.305878 164.931213,302.033844 
	C171.346161,303.638824 174.744659,309.080963 173.909531,317.006561 
	C167.775467,317.006561 161.571930,317.006561 155.133133,317.006561 
	C157.951431,322.588287 161.379471,323.394623 168.003967,320.229309 
M161.445312,312.728271 
	C163.289658,312.728271 165.134003,312.728271 166.978363,312.728271 
	C167.187683,312.021576 167.397018,311.314880 167.606354,310.608185 
	C165.244751,309.460876 162.957916,307.611664 160.501968,307.350067 
	C157.653488,307.046600 155.454773,308.951447 154.829956,312.728149 
	C157.056839,312.728149 158.811340,312.728149 161.445312,312.728271 
z"/>
<path fill="#F6F7F9" opacity="1.000000" stroke="none" 
	d="
M360.484253,307.870758 
	C358.815399,309.149689 357.279480,310.108032 355.805267,311.027924 
	C350.842407,307.208252 346.978729,306.889191 344.299744,309.967377 
	C342.037567,312.566528 342.208832,317.677002 344.638275,320.069122 
	C347.463379,322.850861 350.908630,322.494873 355.499329,318.738800 
	C357.085083,319.557495 358.806091,320.446045 360.518585,321.330170 
	C358.136322,326.707275 353.211060,328.981995 346.537903,327.924164 
	C340.291992,326.934052 335.749451,322.383667 335.069580,316.435944 
	C334.366547,310.285706 337.664246,304.862640 343.480560,302.604187 
	C350.139679,300.018524 356.651154,301.897827 360.484253,307.870758 
z"/>
<path fill="#F4F5F8" opacity="1.000000" stroke="none" 
	d="
M140.835846,309.358032 
	C140.696106,315.588623 140.696106,321.368652 140.696106,327.486511 
	C138.059677,327.486511 135.849731,327.486511 133.008072,327.486511 
	C133.008072,322.386383 133.012573,317.299683 133.005753,312.212952 
	C133.003159,310.281982 133.537903,308.087067 130.339752,307.924469 
	C130.108521,307.912689 130.047104,304.561523 129.906738,302.763000 
	C133.453094,303.011902 132.837112,300.101044 133.485870,298.102936 
	C135.405457,292.190887 141.602463,290.170624 148.421295,293.387756 
	C148.043076,294.730621 147.652786,296.116364 147.285690,297.419769 
	C141.485352,298.248413 141.485352,298.248413 140.439911,302.119507 
	C142.541916,302.360687 144.583481,302.594940 146.804276,302.849762 
	C146.804276,304.559143 146.804276,306.149811 146.804276,307.737762 
	C144.723267,308.155365 142.849426,308.531403 140.835846,309.358032 
z"/>
<path fill="#F8F9FA" opacity="1.000000" stroke="none" 
	d="
M379.431244,322.162323 
	C380.214417,323.654144 380.671936,324.883698 381.115448,326.075592 
	C373.366852,330.926727 365.955109,327.224792 365.660492,318.521423 
	C365.587402,316.363556 365.935364,314.145538 365.537018,312.060760 
	C365.272705,310.677704 363.747467,309.573883 363.289001,308.179840 
	C362.733704,306.491486 362.708221,304.628876 362.453461,302.841675 
	C367.314789,302.935242 364.762451,298.639954 366.269684,296.428284 
	C368.214111,296.428284 370.314972,296.428284 372.773499,296.428284 
	C372.951477,298.225525 373.125000,299.977814 373.333954,302.088013 
	C375.157806,302.349854 377.042572,302.620453 379.222717,302.933472 
	C379.222717,304.560150 379.222717,306.113037 379.222717,307.974701 
	C377.329254,308.131958 375.562408,308.278717 373.837708,308.421967 
	C371.347778,318.902100 372.642181,322.162262 379.431244,322.162323 
z"/>
<path fill="#F9FAFB" opacity="1.000000" stroke="none" 
	d="
M287.955750,326.986816 
	C285.183350,327.300262 282.361053,328.097015 279.649994,327.816895 
	C275.296143,327.367126 272.918121,324.471680 272.680115,320.059692 
	C272.536957,317.406189 272.852051,314.703674 272.462402,312.097748 
	C272.255676,310.714905 270.724854,309.577057 270.260620,308.173523 
	C269.703888,306.490356 269.647003,304.641815 269.373657,302.864899 
	C274.207031,302.930847 271.711029,298.662506 273.200958,296.431519 
	C275.146393,296.431519 277.250702,296.431519 279.715393,296.431519 
	C279.900208,298.221771 280.080872,299.971558 280.301727,302.110687 
	C282.091278,302.362732 283.971008,302.627502 286.138000,302.932739 
	C286.138000,304.539154 286.138000,306.095093 286.138000,307.999542 
	C284.255463,308.139130 282.492889,308.269836 280.077057,308.448975 
	C280.077057,311.954620 279.717224,315.435577 280.261200,318.769012 
	C280.467346,320.032288 282.732178,320.988129 284.104309,322.023621 
	C285.222748,322.867615 286.409149,323.621552 287.804810,325.042023 
	C288.014709,326.108032 287.985229,326.547424 287.955750,326.986816 
z"/>
<path fill="#F6F7F9" opacity="1.000000" stroke="none" 
	d="
M290.290253,324.967529 
	C290.379120,324.237061 290.468018,323.506592 290.514191,322.137451 
	C290.412323,321.306000 290.353180,321.113190 290.294006,320.920410 
	C290.382690,317.285492 290.471344,313.650574 290.555664,309.267395 
	C290.467133,306.638458 290.382935,304.757782 290.298706,302.877106 
	C292.813080,302.974182 295.327240,303.078278 297.842010,303.163971 
	C298.593842,303.189636 299.382446,303.307495 300.093536,303.134216 
	C302.089233,302.647858 304.053253,302.031738 306.447266,301.347473 
	C306.447266,303.912292 306.447266,305.692444 306.447266,307.835419 
	C292.696655,309.277618 300.299744,320.564331 297.342041,327.854553 
	C295.413147,327.720215 293.182709,327.564880 290.734436,326.828857 
	C290.441101,325.821320 290.365662,325.394409 290.290253,324.967529 
z"/>
<path fill="#F4F5F8" opacity="1.000000" stroke="none" 
	d="
M428.340942,308.098877 
	C421.692139,309.373749 420.699402,310.496246 420.597412,316.703064 
	C420.545563,319.859680 420.551392,323.017242 420.505371,326.174011 
	C420.500793,326.485840 420.315887,326.795044 420.096985,327.466431 
	C418.018402,327.466431 415.812286,327.466431 413.279175,327.466431 
	C413.279175,319.108856 413.279175,310.734436 413.279175,301.681122 
	C415.906830,302.048157 418.248810,302.375244 420.590790,302.702362 
	C420.495361,303.109802 420.399933,303.517273 420.304535,303.924713 
	C423.019562,303.071686 425.734589,302.218658 429.107880,301.158813 
	C428.948151,304.020477 428.839569,305.966522 428.340942,308.098877 
z"/>
<path fill="#173F6E" opacity="1.000000" stroke="none" 
	d="
M240.063507,312.019104 
	C240.441025,313.729462 240.521973,315.443237 240.481720,317.571167 
	C239.552887,317.981140 238.745270,317.976990 237.634506,317.976990 
	C237.339005,316.277863 237.346649,314.574646 237.373657,312.444977 
	C238.184341,312.019867 238.975662,312.021179 240.063507,312.019104 
z"/>
<path fill="#173F6E" opacity="1.000000" stroke="none" 
	d="
M289.970459,303.109680 
	C290.382935,304.757782 290.467133,306.638458 290.424561,308.832367 
	C290.079224,307.211151 289.860687,305.276672 289.970459,303.109680 
z"/>
<path fill="#173F6E" opacity="1.000000" stroke="none" 
	d="
M240.078705,306.985046 
	C240.437958,307.676147 240.519623,308.521790 240.482056,309.668152 
	C240.175598,309.025787 239.988358,308.082703 240.078705,306.985046 
z"/>
<path fill="#173F6E" opacity="1.000000" stroke="none" 
	d="
M289.920410,324.975281 
	C290.365662,325.394409 290.441101,325.821320 290.444733,326.569275 
	C289.835968,326.916748 289.299042,326.943115 288.358917,326.978149 
	C287.985229,326.547424 288.014709,326.108032 288.058105,325.337524 
	C288.564850,324.998627 289.057678,324.990845 289.920410,324.975281 
z"/>
<path fill="#173F6E" opacity="1.000000" stroke="none" 
	d="
M240.143066,320.101990 
	C240.440140,320.466614 240.517136,320.901703 240.479126,321.653137 
	C240.217072,321.370453 240.070023,320.771484 240.143066,320.101990 
z"/>
<path fill="#173F6E" opacity="1.000000" stroke="none" 
	d="
M290.083069,321.022522 
	C290.353180,321.113190 290.412323,321.306000 290.382294,321.787903 
	C290.152771,321.759583 290.012451,321.442108 290.083069,321.022522 
z"/>
<path fill="#F2F4F7" opacity="1.000000" stroke="none" 
	d="
M253.314819,379.385498 
	C258.131317,375.032684 263.358154,374.368103 268.858612,376.585999 
	C272.964294,378.241425 275.540588,381.435883 276.119965,385.951752 
	C276.892395,391.972565 274.063995,396.939301 268.680847,399.191040 
	C263.088013,401.530579 256.385590,400.046844 252.761963,395.667175 
	C249.015335,391.138824 249.119049,385.542389 253.314819,379.385498 
M261.132782,380.474731 
	C256.801300,381.948975 254.771088,385.286987 256.120728,389.359009 
	C256.899445,391.708405 259.547272,394.285187 261.915955,395.076111 
	C266.223114,396.514252 270.163849,393.112000 270.602295,388.590942 
	C271.083191,383.631653 267.901764,380.598022 261.132782,380.474731 
z"/>
<path fill="#F4F5F8" opacity="1.000000" stroke="none" 
	d="
M321.724915,394.968597 
	C321.724915,388.837921 321.724915,382.707245 321.724915,376.223297 
	C326.971222,376.223297 331.920258,375.703156 336.708618,376.358093 
	C342.387299,377.134796 345.914215,382.017609 345.976776,387.683685 
	C346.040710,393.473999 342.824860,398.124908 336.991638,399.182495 
	C332.474640,400.001465 327.752899,399.691406 322.587891,399.486725 
	C321.944031,397.716339 321.834473,396.342468 321.724915,394.968597 
M334.323364,380.608124 
	C332.097809,380.608124 329.872223,380.608124 327.303040,380.608124 
	C327.303040,385.072296 327.232819,389.166412 327.378418,393.252838 
	C327.400360,393.868134 328.430054,394.447540 329.847015,395.161865 
	C330.835419,395.161987 331.825623,395.201080 332.811920,395.155396 
	C336.708618,394.975037 339.561005,393.320679 340.083466,389.197632 
	C340.586090,385.231567 339.523499,381.971832 334.323364,380.608124 
z"/>
<path fill="#F2F4F7" opacity="1.000000" stroke="none" 
	d="
M241.263428,396.763367 
	C239.059845,395.084351 237.077026,393.724030 234.111969,391.689880 
	C233.874405,395.509888 233.754089,397.444397 233.618988,399.616699 
	C231.766098,399.616699 230.195450,399.616699 228.357513,399.616699 
	C228.357513,391.845459 228.357513,384.244324 228.357513,376.189697 
	C232.924118,376.189697 237.652466,375.488281 242.009521,376.456940 
	C244.557510,377.023438 247.432892,379.858887 248.521225,382.381104 
	C250.194733,386.259399 248.196259,389.832092 244.338623,392.190155 
	C245.951782,394.733154 247.419312,397.046570 248.886826,399.360016 
	C248.565109,399.820374 248.243378,400.280731 247.921661,400.741089 
	C245.775833,399.521423 243.630005,398.301758 241.263428,396.763367 
M238.109375,388.769745 
	C241.329315,388.546021 244.051041,387.276642 243.014008,383.628204 
	C241.690948,378.973541 237.598816,380.667145 233.519394,380.305908 
	C235.201202,383.486938 230.396729,388.263611 238.109375,388.769745 
z"/>
<path fill="#F2F4F7" opacity="1.000000" stroke="none" 
	d="
M319.822113,399.918365 
	C314.024048,399.918365 308.225983,399.918365 301.602081,399.918365 
	C301.602081,396.137787 301.602081,392.576294 301.582062,388.122253 
	C301.493988,384.138245 301.425903,381.046814 301.357849,377.955383 
	C302.108124,377.262482 302.839142,375.995209 303.611755,375.969330 
	C308.889008,375.792633 314.174988,375.876709 319.423859,375.876709 
	C319.684875,380.588501 319.684875,380.588501 307.477844,381.169983 
	C306.191376,384.280060 307.060730,385.733826 310.618835,385.451416 
	C312.104889,385.333466 313.738220,385.067596 315.068359,385.537537 
	C316.466339,386.031464 317.581696,387.325317 318.820587,388.269623 
	C318.514709,388.786102 318.208862,389.302582 317.902985,389.819061 
	C314.470459,389.819061 311.037903,389.819061 307.308075,389.819061 
	C307.308075,391.735291 307.308075,393.272888 307.308075,395.258911 
	C311.221252,395.258911 315.001617,395.258911 319.352844,395.590027 
	C319.889832,397.253540 319.855988,398.585968 319.822113,399.918365 
z"/>
<path fill="#EFF1F5" opacity="1.000000" stroke="none" 
	d="
M159.467438,388.428833 
	C161.122421,384.757355 162.402435,381.310944 164.177078,378.141479 
	C164.798523,377.031586 166.642715,376.015686 167.917633,376.028687 
	C169.191299,376.041656 171.077316,377.094513 171.614914,378.211334 
	C174.913498,385.064178 177.905670,392.064514 181.126053,399.299286 
	C177.742523,400.379425 175.475098,400.402893 173.985657,396.631805 
	C172.835861,393.720703 163.411652,394.137146 161.422577,396.622345 
	C160.075058,398.306030 158.001419,399.408539 156.252533,400.770996 
	C155.757782,400.314606 155.263016,399.858246 154.768265,399.401886 
	C156.274506,395.855530 157.780762,392.309174 159.467438,388.428833 
M169.166183,384.645477 
	C168.689194,383.878204 168.212219,383.110931 167.538803,382.027679 
	C166.385498,384.899597 165.420898,387.301605 164.360733,389.941589 
	C166.946655,389.941589 168.923752,389.941589 171.326599,389.941589 
	C170.574570,388.061615 170.030426,386.701355 169.166183,384.645477 
z"/>
<path fill="#F2F4F7" opacity="1.000000" stroke="none" 
	d="
M182.168396,396.628723 
	C182.161377,389.682373 182.161377,383.198792 182.161377,376.274139 
	C187.103378,376.274139 191.906815,375.747192 196.531250,376.430969 
	C200.673264,377.043396 203.112396,380.183563 203.023819,384.676941 
	C202.930420,389.414154 200.184097,392.037048 195.798477,392.905670 
	C193.397842,393.381165 190.879395,393.261902 188.151794,393.426666 
	C187.979477,395.527130 187.821854,397.448303 187.627060,399.822784 
	C185.399673,399.248901 182.248917,401.766602 182.168396,396.628723 
M187.868805,386.284729 
	C188.778900,391.065002 192.316345,388.810852 194.368469,388.113525 
	C195.679733,387.667999 197.359161,384.530029 196.907990,383.351868 
	C195.281174,379.103607 191.494232,380.384552 187.867447,380.739197 
	C187.867447,382.463226 187.867447,383.932281 187.868805,386.284729 
z"/>
<path fill="#F2F4F7" opacity="1.000000" stroke="none" 
	d="
M211.041580,375.871246 
	C213.843369,375.938324 216.207626,375.773163 218.493942,376.120728 
	C223.196182,376.835541 226.048721,380.226929 226.003067,384.642731 
	C225.957260,389.073761 223.061096,392.324890 218.309448,392.992950 
	C216.036087,393.312622 213.710587,393.261414 211.143723,393.391571 
	C210.957138,395.502411 210.787704,397.419220 210.595322,399.595642 
	C208.843033,399.595642 207.269775,399.595642 205.409576,399.595642 
	C205.409576,391.892029 205.409576,384.292877 205.409576,375.871124 
	C207.091766,375.871124 208.830261,375.871124 211.041580,375.871246 
M210.828537,386.292450 
	C211.754150,391.056213 215.283020,388.813721 217.337173,388.111237 
	C218.648849,387.662628 220.322815,384.530151 219.872971,383.346191 
	C218.248230,379.069794 214.457230,380.375824 210.826675,380.747192 
	C210.826675,382.466949 210.826675,383.936340 210.828537,386.292450 
z"/>
<path fill="#F4F5F8" opacity="1.000000" stroke="none" 
	d="
M298.949219,380.902954 
	C296.620941,386.026855 294.468140,391.242706 291.860382,396.220184 
	C291.048615,397.769562 289.088409,399.453430 287.499054,399.622864 
	C286.260895,399.754852 284.191864,397.912506 283.512360,396.467773 
	C280.416443,389.885284 277.681183,383.133209 274.809875,376.427307 
	C279.151001,374.844177 281.263702,376.369385 282.554016,380.270172 
	C283.852753,384.196442 285.740112,387.927979 287.772339,392.688416 
	C290.044617,387.565460 291.977478,383.101288 294.001282,378.678711 
	C295.596924,375.191803 296.404388,375.028076 299.928955,377.853088 
	C299.486145,379.326385 299.217712,380.114685 298.949219,380.902954 
z"/>
<path fill="#E7EAEF" opacity="1.000000" stroke="none" 
	d="
M169.035461,427.837402 
	C167.442703,429.288971 165.950333,430.878143 164.219666,432.140656 
	C163.175034,432.902679 161.760178,433.157227 160.511673,433.639801 
	C160.242828,432.463837 159.884186,431.298950 159.736755,430.107971 
	C159.638962,429.317749 159.843414,428.490143 159.905396,427.763245 
	C157.853928,428.631561 155.933502,429.444427 154.013092,430.257324 
	C153.750061,426.972229 153.487030,423.687134 153.182663,419.885956 
	C152.062195,420.713989 150.913162,421.751709 149.595779,422.488403 
	C147.987610,423.387695 146.238083,424.034180 144.549713,424.790009 
	C144.178970,423.020233 143.808228,421.250488 143.363312,419.126617 
	C142.801208,419.390594 142.033997,419.875183 141.196701,420.112000 
	C140.193634,420.395660 138.793579,420.937805 138.186508,420.502319 
	C137.551880,420.047028 137.333603,418.508759 137.498062,417.539764 
	C137.930923,414.988983 138.670425,412.490234 139.287781,409.970734 
	C139.870285,409.990936 140.452789,410.011108 141.035294,410.031281 
	C140.893188,412.142548 140.751099,414.253815 140.587616,416.682953 
	C142.518616,415.833649 144.581375,414.926422 146.644135,414.019196 
	C146.926254,416.116333 147.208359,418.213470 147.425629,419.828552 
	C149.457016,419.532898 152.295151,418.252380 154.115860,419.116272 
	C155.709885,419.872528 156.160706,423.038300 157.175659,425.269775 
	C158.104202,424.770233 159.946228,423.779266 161.788239,422.788300 
	C162.311234,424.696472 162.834244,426.604614 163.383377,428.608154 
	C164.878006,427.955688 166.763565,427.132599 168.834244,426.836945 
	C169.019363,427.364410 169.035461,427.837402 169.035461,427.837402 
z"/>
<path fill="#E0E4EB" opacity="1.000000" stroke="none" 
	d="
M268.063049,449.622406 
	C269.204773,443.510529 269.204773,443.510529 280.118988,442.941254 
	C279.581207,447.356567 279.705170,451.833740 278.204895,455.676788 
	C277.679535,457.022461 273.158447,456.808197 270.462006,457.306274 
	C270.332275,456.617096 270.202515,455.927887 270.072784,455.238678 
	C272.351166,454.750092 274.629547,454.261536 276.498383,453.860779 
	C273.781464,452.458771 271.229004,451.141632 268.352783,449.690491 
	C268.028992,449.556488 268.063049,449.622406 268.063049,449.622406 
z"/>
<path fill="#E7EAEF" opacity="1.000000" stroke="none" 
	d="
M238.074188,444.784363 
	C240.447205,445.174194 243.744034,445.178375 244.222610,446.341858 
	C245.135010,448.559998 244.439468,451.439606 244.411484,454.044586 
	C243.510666,453.921448 242.551758,453.934204 241.745560,453.589691 
	C241.513733,453.490601 241.890167,452.306152 241.696716,451.714508 
	C241.166275,450.092194 240.481140,448.520477 239.857239,446.928711 
	C239.152786,448.401367 238.513931,449.910492 237.721298,451.334045 
	C237.175415,452.314453 236.416519,453.176239 235.752838,454.091064 
	C235.383362,452.998199 235.027237,451.900574 234.641129,450.813599 
	C234.104034,449.301575 233.544464,447.797577 232.994476,446.290131 
	C232.231537,447.714172 231.470993,449.139496 230.704803,450.561768 
	C230.143448,451.603790 229.574692,452.641846 229.009247,453.681671 
	C228.520645,452.524536 227.668060,451.381409 227.622971,450.207245 
	C227.541672,448.090271 227.943665,445.954773 228.208282,443.141479 
	C231.537704,443.764435 234.631500,444.343323 238.074188,444.784363 
z"/>
<path fill="#E0E4EB" opacity="1.000000" stroke="none" 
	d="
M322.911865,440.915649 
	C320.568756,443.249908 318.445160,445.260406 315.766174,447.796753 
	C314.373871,443.947388 312.852600,439.741394 310.886505,434.305511 
	C314.855713,433.997162 318.313904,433.172852 321.473846,433.815338 
	C322.445465,434.012848 322.601746,438.220459 322.911865,440.915649 
z"/>
<path fill="#E7EAEF" opacity="1.000000" stroke="none" 
	d="
M348.062927,423.027771 
	C347.738464,421.948181 347.414001,420.868591 347.049408,419.655396 
	C350.557983,417.260376 353.951324,414.504700 357.764740,412.582336 
	C359.076233,411.921234 361.934631,412.799561 363.186066,413.952148 
	C364.612488,415.265808 365.033234,417.671448 365.891052,419.602539 
	C365.351013,419.829193 364.810974,420.055817 364.270935,420.282471 
	C363.658813,419.552338 363.135956,418.714813 362.414886,418.115845 
	C361.153168,417.067810 359.769684,416.166321 358.437225,415.203430 
	C358.594025,416.803314 358.706421,418.409210 358.921661,420.001190 
	C359.093536,421.272766 359.390625,422.527405 359.632141,423.789581 
	C359.148773,423.958344 358.665436,424.127075 358.182098,424.295837 
	C357.271088,422.984833 356.531006,421.490387 355.389404,420.426941 
	C354.620300,419.710541 353.284180,419.602875 352.201721,419.222900 
	C352.158539,420.276764 351.859406,421.402008 352.129028,422.368622 
	C352.596436,424.044525 353.415955,425.622284 354.087830,427.241211 
	C353.530853,427.501587 352.973907,427.761963 352.416931,428.022369 
	C351.509369,426.940308 350.601837,425.858276 349.345276,424.888245 
	C348.996246,425.000275 349.018616,425.039062 349.238892,424.726501 
	C348.965607,423.926697 348.472046,423.439514 347.997375,422.973694 
	C348.016235,422.995026 348.062927,423.027771 348.062927,423.027771 
z"/>
<path fill="#E0E4EB" opacity="1.000000" stroke="none" 
	d="
M169.285034,428.241577 
	C169.035461,427.837402 169.019363,427.364410 169.031021,427.128052 
	C174.176300,427.195190 171.469330,431.341949 172.362335,433.729523 
	C174.206406,432.535217 176.026001,431.356750 177.845612,430.178284 
	C178.432770,432.236328 179.019928,434.294403 179.605026,436.345245 
	C181.192795,435.199097 182.990875,433.901154 184.788956,432.603180 
	C185.144150,432.979706 185.499344,433.356201 185.854553,433.732727 
	C184.774368,435.020325 183.821762,436.450714 182.581284,437.558868 
	C181.076920,438.902740 179.329422,439.974457 177.687119,441.163940 
	C176.954483,439.331787 176.221848,437.499664 175.414444,435.480530 
	C174.768356,436.094513 173.912872,437.578430 172.930939,437.667419 
	C171.755447,437.773987 169.521042,436.832245 169.409805,436.093781 
	C169.045044,433.672302 169.434830,431.137207 169.285034,428.241577 
z"/>
<path fill="#E0E4EB" opacity="1.000000" stroke="none" 
	d="
M299.830505,442.946014 
	C299.948730,446.904449 298.660187,449.887665 294.210754,450.153595 
	C290.238861,450.390961 288.621490,447.949188 288.199768,443.964783 
	C288.057098,443.615234 288.041290,443.685181 288.041290,443.685181 
	C292.375946,438.430145 295.392181,438.182129 299.585327,442.876587 
	C299.872437,442.993683 299.830505,442.946014 299.830505,442.946014 
z"/>
<path fill="#E7EAEF" opacity="1.000000" stroke="none" 
	d="
M337.288879,426.132874 
	C340.519836,421.289886 342.312378,420.771973 347.663177,423.139374 
	C348.062927,423.027771 348.016235,422.995026 347.792694,423.298523 
	C348.052307,424.080994 348.535461,424.560028 349.018616,425.039062 
	C349.018616,425.039062 348.996246,425.000275 348.985931,424.980560 
	C347.549408,427.348450 346.123199,429.736084 343.971008,432.259094 
	C338.981995,432.473785 337.532074,429.877258 337.288879,426.132874 
z"/>
<path fill="#E7EAEF" opacity="1.000000" stroke="none" 
	d="
M188.415878,444.304749 
	C187.130905,437.511871 192.167404,440.738831 195.757812,439.538788 
	C193.356094,438.580933 191.763855,437.945923 190.171631,437.310913 
	C190.215836,436.817566 190.260056,436.324219 190.304276,435.830872 
	C192.378098,436.197693 194.982681,435.902985 196.423355,437.058960 
	C200.302734,440.171509 197.110046,443.576111 196.202805,447.345337 
	C193.495270,446.371246 191.081909,445.502960 188.415878,444.304749 
z"/>
<path fill="#EFF1F5" opacity="1.000000" stroke="none" 
	d="
M214.080917,442.777191 
	C215.470062,442.437714 216.859207,442.098267 218.849731,441.611877 
	C218.675201,443.426178 218.289795,444.846771 218.482651,446.183960 
	C218.661346,447.423035 219.458298,448.572937 219.983002,449.762115 
	C220.887268,448.775146 221.980591,447.899689 222.645966,446.771759 
	C223.408585,445.479004 223.791473,443.962219 224.339325,442.542755 
	C224.941940,442.766602 225.544556,442.990448 226.147171,443.214294 
	C225.697189,446.383392 225.247192,449.552490 224.796524,452.726379 
	C215.640778,451.489960 215.640778,451.489960 214.502686,443.481384 
	C214.061127,443.216431 214.080917,442.777191 214.080917,442.777191 
z"/>
<path fill="#E7EAEF" opacity="1.000000" stroke="none" 
	d="
M247.025436,451.502258 
	C246.951385,448.966553 246.951385,446.855957 246.951385,444.745361 
	C247.551147,444.573914 248.150925,444.402496 248.750687,444.231049 
	C249.161804,445.649384 249.475601,447.105927 250.013062,448.474670 
	C250.493622,449.698517 251.220917,450.825500 251.839355,451.995209 
	C252.604111,450.779083 253.526367,449.631012 254.089325,448.327728 
	C254.653137,447.022491 254.858124,445.562256 255.220383,444.169952 
	C255.737396,444.267853 256.254395,444.365753 256.771423,444.463684 
	C256.771423,447.657410 256.771423,450.851135 256.771423,454.405823 
	C253.563995,453.710297 249.416901,457.041992 247.025436,451.502258 
z"/>
<path fill="#E7EAEF" opacity="1.000000" stroke="none" 
	d="
M299.896027,443.014954 
	C300.006226,442.416077 300.022827,441.775726 300.194672,441.180206 
	C300.507172,440.097229 300.911865,439.040863 301.278076,437.973389 
	C301.922760,438.790558 302.532684,439.638367 303.220062,440.417908 
	C304.349518,441.698822 305.529175,442.935486 306.687622,444.190826 
	C306.892334,442.574402 307.050049,440.950104 307.317810,439.344208 
	C307.504578,438.223938 307.842041,437.128845 308.112183,436.022491 
	C308.856842,436.907135 309.879120,437.680695 310.286987,438.700104 
	C311.077637,440.676361 311.522736,442.790833 312.100250,444.810333 
	C303.587128,448.587921 303.192200,448.517273 300.213074,442.922058 
	C299.830505,442.946014 299.872437,442.993683 299.896027,443.014954 
z"/>
<path fill="#E7EAEF" opacity="1.000000" stroke="none" 
	d="
M267.699158,449.481384 
	C268.063049,449.622406 268.028992,449.556488 268.011993,449.522827 
	C267.121979,454.677887 264.802887,455.671600 258.611755,452.997223 
	C260.055603,452.339203 261.103333,451.861755 262.473267,451.237427 
	C260.372253,449.496002 256.161530,447.890259 260.543060,444.852173 
	C262.053955,443.804565 264.688232,444.377106 266.809357,444.209564 
	C266.838074,444.779083 266.866791,445.348572 266.895508,445.918091 
	C265.338013,446.191010 263.780518,446.463928 261.130859,446.928223 
	C263.884399,447.998749 265.609833,448.669556 267.699158,449.481384 
z"/>
<path fill="#E7EAEF" opacity="1.000000" stroke="none" 
	d="
M214.006042,442.429382 
	C214.080917,442.777191 214.061127,443.216431 214.039856,443.435242 
	C213.138687,443.554871 212.258255,443.371582 211.378998,443.377075 
	C210.191010,443.384521 208.862534,443.253662 207.875748,443.746063 
	C207.377365,443.994781 207.053070,445.965729 207.430252,446.314636 
	C208.260452,447.082703 209.566315,447.378113 210.717331,447.742279 
	C211.408981,447.961121 212.174606,447.946167 212.906982,448.036255 
	C212.964691,448.591156 213.022400,449.146027 213.080109,449.700897 
	C211.210739,449.836761 209.147537,450.544373 207.512222,449.989868 
	C204.073868,448.824158 203.421188,445.968811 204.239868,442.300842 
	C203.994980,441.941559 203.993683,441.990631 203.993683,441.990631 
	C207.318771,440.645569 210.654160,438.175293 214.006042,442.429382 
z"/>
<path fill="#E7EAEF" opacity="1.000000" stroke="none" 
	d="
M338.841339,433.325226 
	C337.514313,434.516205 336.374878,436.227814 334.820496,436.787903 
	C331.756104,437.892059 329.183716,436.750092 328.080750,433.489502 
	C326.895966,429.987000 329.119934,427.521942 334.940521,426.743164 
	C335.083649,427.733765 334.597473,428.500549 333.950287,429.090790 
	C332.985291,429.970734 331.713989,430.588654 330.984283,431.611481 
	C330.739014,431.955231 331.642761,433.796539 332.207092,433.895660 
	C333.300476,434.087708 334.515686,433.440430 335.699097,433.309265 
	C336.733185,433.194611 337.792938,433.310944 338.841339,433.325226 
z"/>
<path fill="#E0E4EB" opacity="1.000000" stroke="none" 
	d="
M204.016815,441.929230 
	C203.069489,444.028625 202.100311,446.140320 201.131104,448.252014 
	C198.315948,446.813416 198.532379,444.082092 202.196198,434.810272 
	C204.701233,435.638489 204.701233,435.638489 203.783371,441.647095 
	C203.993683,441.990631 203.994980,441.941559 204.016815,441.929230 
z"/>
<path fill="#3A5B83" opacity="1.000000" stroke="none" 
	d="
M339.097046,433.480103 
	C337.792938,433.310944 336.733185,433.194611 335.699097,433.309265 
	C334.515686,433.440430 333.300476,434.087708 332.207092,433.895660 
	C331.642761,433.796539 330.739014,431.955231 330.984283,431.611481 
	C331.713989,430.588654 332.985291,429.970734 333.950287,429.090790 
	C334.597473,428.500549 335.083649,427.733765 335.358582,426.772186 
	C335.620667,426.359131 336.166107,426.219818 337.000183,426.106689 
	C337.532074,429.877258 338.981995,432.473785 343.644867,432.419067 
	C342.480743,432.840729 340.916779,433.237854 339.097046,433.480103 
z"/>
<path fill="#E7EAEF" opacity="1.000000" stroke="none" 
	d="
M287.850769,443.335449 
	C288.041290,443.685181 288.057098,443.615234 288.076935,443.585693 
	C284.520142,444.043091 284.837891,446.490417 285.140808,449.111786 
	C285.246033,450.022461 284.644897,451.014801 284.366394,451.969818 
	C283.622498,451.155151 282.475281,450.450958 282.215851,449.503632 
	C281.616364,447.314667 281.447235,445.007843 280.910217,441.478058 
	C283.535156,442.064331 285.597717,442.525024 287.850769,443.335449 
z"/>
<path fill="#173F6E" opacity="1.000000" stroke="none" 
	d="
M299.113770,381.262634 
	C299.217712,380.114685 299.486145,379.326385 299.929321,378.273956 
	C300.312927,378.005676 300.521851,378.001526 301.044312,377.976379 
	C301.425903,381.046814 301.493988,384.138245 301.452026,387.687256 
	C300.654114,385.970642 299.966187,383.796448 299.113770,381.262634 
z"/>
<path fill="#3A5B83" opacity="1.000000" stroke="none" 
	d="
M320.221069,399.948669 
	C319.855988,398.585968 319.889832,397.253540 319.796021,395.539001 
	C320.124725,395.102753 320.581055,395.048645 321.381165,394.981567 
	C321.834473,396.342468 321.944031,397.716339 322.135559,399.494843 
	C321.684998,399.925964 321.152527,399.952484 320.221069,399.948669 
z"/>
<path fill="#FAFBFC" opacity="1.000000" stroke="none" 
	d="
M229.047791,129.948883 
	C236.445923,136.060898 243.844055,142.172897 251.502136,148.499680 
	C259.370056,143.459686 267.440125,138.290207 275.510193,133.120728 
	C275.850861,133.318253 276.191528,133.515793 276.532196,133.713318 
	C272.747131,142.625671 268.962067,151.538010 265.108185,160.612427 
	C272.650238,166.805969 280.168976,172.980362 287.687714,179.154755 
	C287.566345,179.464767 287.444946,179.774765 287.323547,180.084763 
	C278.808105,179.314850 270.268616,178.737030 261.789642,177.675751 
	C258.618622,177.278854 257.460175,178.249878 256.435181,181.075562 
	C253.570145,188.974228 250.356796,196.746536 246.280396,204.366608 
	C244.139877,194.980026 241.999359,185.593445 239.804398,175.968185 
	C230.020630,175.357178 220.335648,174.752350 210.650650,174.147507 
	C210.570862,173.822205 210.491058,173.496918 210.411270,173.171616 
	C217.793747,168.789825 225.103241,164.277084 232.599396,160.099289 
	C235.128204,158.689941 235.671463,157.344101 234.893234,154.606033 
	C232.666794,146.772781 230.751633,138.851074 228.832062,130.507370 
	C228.950043,130.050598 229.047791,129.948883 229.047791,129.948883 
z"/>
<path fill="#F9FAFB" opacity="1.000000" stroke="none" 
	d="
M307.053711,225.966125 
	C305.012024,227.679962 303.265503,229.189011 301.316193,230.873230 
	C294.667786,212.552185 284.942200,196.687714 268.606171,185.652588 
	C281.204132,182.466873 292.462738,186.309418 299.915100,196.589767 
	C302.341187,199.936539 304.514343,203.507828 306.434937,207.169571 
	C308.885620,211.842010 310.962921,216.710312 313.302460,221.710754 
	C311.118896,223.196381 309.233887,224.478867 307.053711,225.966125 
z"/>
<path fill="#F9FAFB" opacity="1.000000" stroke="none" 
	d="
M291.786621,143.731537 
	C286.271210,146.691986 281.103394,149.496490 275.034027,152.790253 
	C276.983246,148.232574 278.846252,144.819656 279.917694,141.174088 
	C282.120117,133.680328 287.337616,129.244598 294.385956,127.370377 
	C304.100739,124.787140 314.037964,123.040489 323.802094,120.952118 
	C325.783173,126.643196 327.338074,131.109940 328.997955,135.878235 
	C316.204285,136.484497 303.812927,138.390457 291.786621,143.731537 
z"/>
<path fill="#F9FAFB" opacity="1.000000" stroke="none" 
	d="
M228.633621,108.937553 
	C229.714111,99.101532 230.797684,89.751114 231.891754,80.310059 
	C237.627594,80.310059 242.222443,80.310059 247.521957,80.310059 
	C242.115250,98.940033 240.980133,117.681023 247.158905,136.488937 
	C238.688324,128.876160 227.205048,123.532501 228.633621,108.937553 
z"/>
<path fill="#F9FAFB" opacity="1.000000" stroke="none" 
	d="
M186.771484,150.298660 
	C198.325897,155.537537 210.095261,157.997940 223.049881,157.854538 
	C212.102936,166.334732 201.486267,173.213333 187.540924,166.298767 
	C180.000198,162.559845 172.407059,158.926666 164.907364,155.279709 
	C166.560501,149.890335 167.946915,145.370560 169.315796,140.907898 
	C175.074982,144.012238 180.751953,147.072250 186.771484,150.298660 
z"/>
<path fill="#FAFBFC" opacity="1.000000" stroke="none" 
	d="
M210.643127,226.651443 
	C222.327988,215.825302 231.023453,203.476944 235.369583,188.267548 
	C241.209885,197.153152 241.638336,211.067993 236.028381,219.410156 
	C233.353561,223.387680 230.259033,227.142899 226.960190,230.625137 
	C223.102905,234.696945 218.815536,238.361328 214.887970,242.040192 
	C210.676437,239.088425 206.887756,236.433029 202.728485,233.517883 
	C205.273270,231.313034 207.827179,229.100266 210.643127,226.651443 
z"/>
<path fill="#FAFBFC" opacity="1.000000" stroke="none" 
	d="
M228.901138,130.101440 
	C228.655579,129.953125 228.458923,129.753967 228.262268,129.554840 
	C228.501312,129.526520 228.740356,129.498215 229.013596,129.709396 
	C229.047791,129.948883 228.950043,130.050598 228.901138,130.101440 
z"/>
<path fill="#FBFCFD" opacity="1.000000" stroke="none" 
	d="
M322.581726,85.046738 
	C322.914978,86.070732 322.944061,87.121841 322.942444,88.564804 
	C322.700348,87.662392 322.488922,86.368118 322.581726,85.046738 
z"/>
<path fill="#E7EAEF" opacity="1.000000" stroke="none" 
	d="
M326.703644,83.724930 
	C326.977966,84.063835 327.008972,84.243477 326.963623,84.686432 
	C326.296265,84.701851 325.705292,84.453949 325.114288,84.206047 
	C325.562958,83.992577 326.011627,83.779121 326.703644,83.724930 
z"/>
<path fill="#294E79" opacity="1.000000" stroke="none" 
	d="
M229.777832,313.364380 
	C229.461884,319.663086 226.853134,322.512756 222.382996,321.896454 
	C218.503113,321.361542 215.735550,317.644562 217.099655,313.439056 
	C217.812057,311.242767 220.251450,308.764130 222.434677,308.076630 
	C226.090851,306.925323 228.647476,309.288849 229.777832,313.364380 
z"/>
<path fill="#294E79" opacity="1.000000" stroke="none" 
	d="
M402.032898,316.571838 
	C400.596069,321.148438 397.653412,322.878632 393.538269,321.552673 
	C389.587769,320.279816 388.525513,316.901611 389.262970,313.143036 
	C390.000183,309.385864 392.551270,307.400177 396.430267,307.880493 
	C401.288391,308.481995 402.392242,311.908020 402.032898,316.571838 
z"/>
<path fill="#30537D" opacity="1.000000" stroke="none" 
	d="
M118.453751,321.519897 
	C117.271744,322.181915 116.189064,323.093414 115.517143,322.853668 
	C113.624168,322.178314 111.900055,321.029694 110.109360,320.067627 
	C111.694382,319.040405 113.172356,317.727295 114.899780,317.080383 
	C116.181107,316.600586 117.786446,316.985992 120.071594,316.985992 
	C119.523148,318.740479 119.131866,319.992157 118.453751,321.519897 
z"/>
<path fill="#30537D" opacity="1.000000" stroke="none" 
	d="
M323.847748,320.872681 
	C323.237335,321.504578 322.836761,322.107483 322.481110,322.082062 
	C320.092102,321.911316 317.712616,321.607086 315.330078,321.346130 
	C315.575317,320.180603 315.654633,318.080536 316.093018,318.002686 
	C318.745697,317.531586 321.480469,317.522491 324.187805,317.358948 
	C324.151306,318.423615 324.114838,319.488281 323.847748,320.872681 
z"/>
<path fill="#3A5B83" opacity="1.000000" stroke="none" 
	d="
M161.005585,312.728210 
	C158.811340,312.728149 157.056839,312.728149 154.829956,312.728149 
	C155.454773,308.951447 157.653488,307.046600 160.501968,307.350067 
	C162.957916,307.611664 165.244751,309.460876 167.606354,310.608185 
	C167.397018,311.314880 167.187683,312.021576 166.978363,312.728271 
	C165.134003,312.728271 163.289658,312.728271 161.005585,312.728210 
z"/>
<path fill="#294E79" opacity="1.000000" stroke="none" 
	d="
M261.507080,380.375000 
	C267.901764,380.598022 271.083191,383.631653 270.602295,388.590942 
	C270.163849,393.112000 266.223114,396.514252 261.915955,395.076111 
	C259.547272,394.285187 256.899445,391.708405 256.120728,389.359009 
	C254.771088,385.286987 256.801300,381.948975 261.507080,380.375000 
z"/>
<path fill="#264B77" opacity="1.000000" stroke="none" 
	d="
M335.004395,380.984955 
	C339.523499,381.971832 340.586090,385.231567 340.083466,389.197632 
	C339.561005,393.320679 336.708618,394.975037 332.811920,395.155396 
	C331.825623,395.201080 330.835419,395.161987 329.406250,394.634827 
	C329.763641,389.174469 325.803497,382.051453 335.004395,380.984955 
z"/>
<path fill="#3A5B83" opacity="1.000000" stroke="none" 
	d="
M334.663879,380.796539 
	C325.803497,382.051453 329.763641,389.174469 328.979492,394.575684 
	C328.430054,394.447540 327.400360,393.868134 327.378418,393.252838 
	C327.232819,389.166412 327.303040,385.072296 327.303040,380.608124 
	C329.872223,380.608124 332.097809,380.608124 334.663879,380.796539 
z"/>
<path fill="#30537D" opacity="1.000000" stroke="none" 
	d="
M237.680328,388.772766 
	C230.396729,388.263611 235.201202,383.486938 233.519394,380.305908 
	C237.598816,380.667145 241.690948,378.973541 243.014008,383.628204 
	C244.051041,387.276642 241.329315,388.546021 237.680328,388.772766 
z"/>
<path fill="#30537D" opacity="1.000000" stroke="none" 
	d="
M169.326233,384.993286 
	C170.030426,386.701355 170.574570,388.061615 171.326599,389.941589 
	C168.923752,389.941589 166.946655,389.941589 164.360733,389.941589 
	C165.420898,387.301605 166.385498,384.899597 167.538803,382.027679 
	C168.212219,383.110931 168.689194,383.878204 169.326233,384.993286 
z"/>
<path fill="#30537D" opacity="1.000000" stroke="none" 
	d="
M187.868134,385.843048 
	C187.867447,383.932281 187.867447,382.463226 187.867447,380.739197 
	C191.494232,380.384552 195.281174,379.103607 196.907990,383.351868 
	C197.359161,384.530029 195.679733,387.667999 194.368469,388.113525 
	C192.316345,388.810852 188.778900,391.065002 187.868134,385.843048 
z"/>
<path fill="#30537D" opacity="1.000000" stroke="none" 
	d="
M210.827606,385.849060 
	C210.826675,383.936340 210.826675,382.466949 210.826675,380.747192 
	C214.457230,380.375824 218.248230,379.069794 219.872971,383.346191 
	C220.322815,384.530151 218.648849,387.662628 217.337173,388.111237 
	C215.283020,388.813721 211.754150,391.056213 210.827606,385.849060 
z"/>
<path fill="#264B77" opacity="1.000000" stroke="none" 
	d="
M349.238892,424.726501 
	C348.535461,424.560028 348.052307,424.080994 347.773804,423.277161 
	C348.472046,423.439514 348.965607,423.926697 349.238892,424.726501 
z"/>
</svg>